<?xml version="1.0" encoding="UTF-8" standalone="no"?>
<!-- Created with Inkscape (http://www.inkscape.org/) -->

<svg
   width="153.72833mm"
   height="89.929138mm"
   viewBox="0 0 153.72833 89.929138"
   version="1.1"
   id="svg1"
   inkscape:version="1.3.2 (091e20ef0f, 2023-11-25, custom)"
   sodipodi:docname="connected-blobs.svg"
   xmlns:inkscape="http://www.inkscape.org/namespaces/inkscape"
   xmlns:sodipodi="http://sodipodi.sourceforge.net/DTD/sodipodi-0.dtd"
   xmlns="http://www.w3.org/2000/svg"
   xmlns:svg="http://www.w3.org/2000/svg"
   xmlns:ns32="http://www.iki.fi/pav/software/textext/">
  <sodipodi:namedview
     id="namedview1"
     pagecolor="#505050"
     bordercolor="#ffffff"
     borderopacity="1"
     inkscape:showpageshadow="0"
     inkscape:pageopacity="0"
     inkscape:pagecheckerboard="1"
     inkscape:deskcolor="#505050"
     inkscape:document-units="mm"
     inkscape:zoom="1.8596429"
     inkscape:cx="268.86883"
     inkscape:cy="156.21279"
     inkscape:window-width="1672"
     inkscape:window-height="1009"
     inkscape:window-x="0"
     inkscape:window-y="33"
     inkscape:window-maximized="1"
     inkscape:current-layer="layer1" />
  <defs
     id="defs1">
    <inkscape:path-effect
       effect="bspline"
       id="path-effect3"
       is_visible="true"
       lpeversion="1.3"
       weight="33.333333"
       steps="2"
       helper_size="0"
       apply_no_weight="true"
       apply_with_weight="true"
       only_selected="false"
       uniform="false" />
    <inkscape:path-effect
       effect="bspline"
       id="path-effect1"
       is_visible="true"
       lpeversion="1.3"
       weight="33.333333"
       steps="2"
       helper_size="0"
       apply_no_weight="true"
       apply_with_weight="true"
       only_selected="false"
       uniform="false" />
  </defs>
  <g
     inkscape:label="Layer 1"
     inkscape:groupmode="layer"
     id="layer1"
     transform="translate(-40.520659,-99.784999)">
    <path
       id="path1"
       style="opacity:0.4;fill:#ecd57f;stroke:#ece6da;stroke-width:0.5;stroke-dasharray:none;paint-order:stroke fill markers"
       d="m 104.57729,175.43686 c -0.97979,2.95687 -3.88984,5.71952 -8.707883,7.52158 -10.539759,3.94213 -30.209353,3.28738 -41.298523,-4.35543 -11.08917,-7.6428 -13.597474,-22.2731 -11.386909,-32.17936 2.210566,-9.90626 9.139771,-15.08803 7.943782,-20.21005 -1.195988,-5.12202 -10.516937,-10.18403 -10.35497,-15.84823 0.161967,-5.6642 9.806664,-11.930271 19.728503,-9.95953 v 0 c 9.921839,1.97074 20.120668,12.17843 19.628963,22.96303 -0.491705,10.7846 -11.673486,22.14571 -8.605526,28.6701 3.06796,6.5244 20.385217,8.21182 28.339403,13.32515" />
    <path
       style="opacity:0.4;fill:#ecd57f;stroke:#ece6da;stroke-width:0.5;stroke-dasharray:none;paint-order:stroke fill markers"
       d="m 99.86511,165.36114 16.69486,-22.68074 -11.98268,32.75646"
       id="path2" />
    <path
       style="opacity:0.4;fill:#a2a89b;stroke:#ece6da;stroke-width:0.5;stroke-dasharray:none;paint-order:stroke fill markers"
       d="m 116.55898,142.68338 c 13.92796,-13.53114 27.85592,-27.06227 42.0609,-28.44429 14.20498,-1.38202 28.6864,9.38465 33.48261,24.16393 4.79622,14.77927 -0.0929,33.57017 -8.37907,43.09938 -8.2862,9.52921 -19.96895,9.79634 -25.36018,4.51133 -5.39124,-5.28501 -4.49076,-16.12173 -5.74628,-22.86669 -1.25551,-6.74497 -4.66688,-9.39786 -10.29613,-9.39783 -5.62924,3e-5 -13.47597,2.65292 -18.13926,1.25072 -4.66329,-1.4022 -6.14293,-6.85932 -7.62259,-12.31655"
       id="path3"
       inkscape:path-effect="#path-effect3"
       inkscape:original-d="m 116.55898,142.68338 c 13.92796,-13.53114 27.85592,-27.06227 41.78388,-40.59341 14.482,10.7671 28.96342,21.53377 43.44513,32.30066 -4.88928,18.79166 -9.77837,37.58256 -14.66755,56.37383 -11.68322,0.26715 -23.36597,0.53428 -35.04895,0.80142 0.90051,-10.83716 1.80098,-21.67388 2.70148,-32.51081 -3.41152,-2.653 -6.82289,-5.30589 -10.23434,-7.95883 -7.84704,2.653 -15.69377,5.30589 -23.54066,7.95883 -1.47969,-5.45734 -2.95933,-10.91446 -4.43899,-16.37169" />
    <g
       transform="matrix(1.1829277,0,0,1.1829277,56.540127,110.54684)"
       ns32:version="1.10.2"
       ns32:texconverter="pdflatex"
       ns32:pdfconverter="inkscape"
       ns32:text="$$A$$"
       ns32:preamble="/home/mel/.config/inkscape/extensions/textext/default_packages.tex"
       ns32:scale="0.29742396067782007"
       ns32:alignment="middle center"
       ns32:stroke-to-path="0"
       id="g8824"
       ns32:jacobian_sqrt="0.104925"
       style="fill:#ece6da">
      <defs
         id="id-161e92ae-2c67-44a2-a4fd-8de0bacb3ba8">
        <g
           id="id-665f3d81-985d-4297-98e6-7cd5cfe48620">
          <g
             id="id-86eb39e5-4a76-437a-a579-0d6f8b1b3138">
            <path
               d="M 1.78125,-1.140625 C 1.390625,-0.484375 1,-0.34375 0.5625,-0.3125 0.4375,-0.296875 0.34375,-0.296875 0.34375,-0.109375 0.34375,-0.046875 0.40625,0 0.484375,0 0.75,0 1.0625,-0.03125 1.328125,-0.03125 c 0.34375,0 0.6875,0.03125 1,0.03125 0.0625,0 0.1875,0 0.1875,-0.1875 0,-0.109375 -0.078125,-0.125 -0.15625,-0.125 -0.21875,-0.015625 -0.46875,-0.09375 -0.46875,-0.34375 0,-0.125 0.0625,-0.234375 0.140625,-0.375 l 0.765625,-1.265625 h 2.5 c 0.015625,0.203125 0.15625,1.5625 0.15625,1.65625 0,0.296875 -0.515625,0.328125 -0.71875,0.328125 C 4.59375,-0.3125 4.5,-0.3125 4.5,-0.109375 4.5,0 4.609375,0 4.640625,0 5.046875,0 5.46875,-0.03125 5.875,-0.03125 6.125,-0.03125 6.765625,0 7.015625,0 7.0625,0 7.1875,0 7.1875,-0.203125 7.1875,-0.3125 7.09375,-0.3125 6.953125,-0.3125 6.34375,-0.3125 6.34375,-0.375 6.3125,-0.671875 l -0.609375,-6.21875 c -0.015625,-0.203125 -0.015625,-0.25 -0.1875,-0.25 -0.15625,0 -0.203125,0.078125 -0.265625,0.171875 z M 2.984375,-2.609375 4.9375,-5.90625 5.265625,-2.609375 Z m 0,0"
               id="id-01884470-92d3-41f8-ae56-33ee60f0d8a3" />
          </g>
        </g>
      </defs>
      <g
         fill="#000000"
         fill-opacity="1"
         id="id-c4faee62-48df-4f47-b7fe-c56263e0f17e"
         transform="translate(-302.232,-139.579)"
         style="fill:#ece6da">
        <g
           transform="translate(301.888,146.72)"
           id="g8636"
           style="fill:#ece6da">
          <path
             d="M 1.78125,-1.140625 C 1.390625,-0.484375 1,-0.34375 0.5625,-0.3125 0.4375,-0.296875 0.34375,-0.296875 0.34375,-0.109375 0.34375,-0.046875 0.40625,0 0.484375,0 0.75,0 1.0625,-0.03125 1.328125,-0.03125 c 0.34375,0 0.6875,0.03125 1,0.03125 0.0625,0 0.1875,0 0.1875,-0.1875 0,-0.109375 -0.078125,-0.125 -0.15625,-0.125 -0.21875,-0.015625 -0.46875,-0.09375 -0.46875,-0.34375 0,-0.125 0.0625,-0.234375 0.140625,-0.375 l 0.765625,-1.265625 h 2.5 c 0.015625,0.203125 0.15625,1.5625 0.15625,1.65625 0,0.296875 -0.515625,0.328125 -0.71875,0.328125 C 4.59375,-0.3125 4.5,-0.3125 4.5,-0.109375 4.5,0 4.609375,0 4.640625,0 5.046875,0 5.46875,-0.03125 5.875,-0.03125 6.125,-0.03125 6.765625,0 7.015625,0 7.0625,0 7.1875,0 7.1875,-0.203125 7.1875,-0.3125 7.09375,-0.3125 6.953125,-0.3125 6.34375,-0.3125 6.34375,-0.375 6.3125,-0.671875 l -0.609375,-6.21875 c -0.015625,-0.203125 -0.015625,-0.25 -0.1875,-0.25 -0.15625,0 -0.203125,0.078125 -0.265625,0.171875 z M 2.984375,-2.609375 4.9375,-5.90625 5.265625,-2.609375 Z m 0,0"
             id="id-062ac5fa-2d12-4e9e-bd25-92ab0c2c579b"
             style="fill:#ece6da" />
        </g>
      </g>
    </g>
    <g
       transform="matrix(1.1928521,0,0,1.1928521,155.28349,120.26914)"
       ns32:version="1.10.2"
       ns32:texconverter="pdflatex"
       ns32:pdfconverter="inkscape"
       ns32:text="$$B$$"
       ns32:preamble="/home/mel/.config/inkscape/extensions/textext/default_packages.tex"
       ns32:scale="0.29742396067782007"
       ns32:alignment="middle center"
       ns32:stroke-to-path="0"
       id="g5947"
       ns32:jacobian_sqrt="0.104925"
       style="fill:#ece6da">
      <defs
         id="id-22d75dda-d57e-41d5-98c5-6885758bd25a">
        <g
           id="id-2ad454af-5592-4178-ae4f-72b0092ebed2">
          <g
             id="id-947b345e-9982-4c59-a0da-02b15356b612">
            <path
               d="M 1.59375,-0.78125 C 1.5,-0.390625 1.46875,-0.3125 0.6875,-0.3125 c -0.171875,0 -0.265625,0 -0.265625,0.203125 C 0.421875,0 0.515625,0 0.6875,0 H 4.25 C 5.828125,0 7,-1.171875 7,-2.15625 7,-2.875 6.421875,-3.453125 5.453125,-3.5625 6.484375,-3.75 7.53125,-4.484375 7.53125,-5.4375 c 0,-0.734375 -0.65625,-1.375 -1.84375,-1.375 H 2.328125 c -0.1875,0 -0.28125,0 -0.28125,0.203125 0,0.109375 0.09375,0.109375 0.28125,0.109375 0.015625,0 0.203125,0 0.375,0.015625 0.171875,0.03125 0.265625,0.03125 0.265625,0.171875 0,0.03125 -0.015625,0.0625 -0.03125,0.1875 z m 1.5,-2.875 0.625,-2.46875 C 3.8125,-6.46875 3.828125,-6.5 4.25,-6.5 h 1.296875 c 0.875,0 1.078125,0.59375 1.078125,1.03125 0,0.875 -0.859375,1.8125 -2.0625,1.8125 z m -0.4375,3.34375 c -0.140625,0 -0.15625,0 -0.21875,0 -0.109375,-0.015625 -0.140625,-0.03125 -0.140625,-0.109375 0,-0.03125 0,-0.046875 0.0625,-0.21875 l 0.6875,-2.78125 h 1.875 c 0.953125,0 1.15625,0.734375 1.15625,1.15625 C 6.078125,-1.28125 5.1875,-0.3125 4,-0.3125 Z m 0,0"
               id="id-43f40b81-dbd9-467f-98e6-520122951a4a" />
          </g>
        </g>
      </defs>
      <g
         fill="#000000"
         fill-opacity="1"
         id="id-132ec299-ff3a-4496-a0d2-8a70b659b780"
         transform="translate(-302.018,-139.907)"
         style="fill:#ece6da">
        <g
           transform="translate(301.596,146.72)"
           id="g7487"
           style="fill:#ece6da">
          <path
             d="M 1.59375,-0.78125 C 1.5,-0.390625 1.46875,-0.3125 0.6875,-0.3125 c -0.171875,0 -0.265625,0 -0.265625,0.203125 C 0.421875,0 0.515625,0 0.6875,0 H 4.25 C 5.828125,0 7,-1.171875 7,-2.15625 7,-2.875 6.421875,-3.453125 5.453125,-3.5625 6.484375,-3.75 7.53125,-4.484375 7.53125,-5.4375 c 0,-0.734375 -0.65625,-1.375 -1.84375,-1.375 H 2.328125 c -0.1875,0 -0.28125,0 -0.28125,0.203125 0,0.109375 0.09375,0.109375 0.28125,0.109375 0.015625,0 0.203125,0 0.375,0.015625 0.171875,0.03125 0.265625,0.03125 0.265625,0.171875 0,0.03125 -0.015625,0.0625 -0.03125,0.1875 z m 1.5,-2.875 0.625,-2.46875 C 3.8125,-6.46875 3.828125,-6.5 4.25,-6.5 h 1.296875 c 0.875,0 1.078125,0.59375 1.078125,1.03125 0,0.875 -0.859375,1.8125 -2.0625,1.8125 z m -0.4375,3.34375 c -0.140625,0 -0.15625,0 -0.21875,0 -0.109375,-0.015625 -0.140625,-0.03125 -0.140625,-0.109375 0,-0.03125 0,-0.046875 0.0625,-0.21875 l 0.6875,-2.78125 h 1.875 c 0.953125,0 1.15625,0.734375 1.15625,1.15625 C 6.078125,-1.28125 5.1875,-0.3125 4,-0.3125 Z m 0,0"
             id="id-779b5146-60f8-4203-97fe-0f14794fb4be"
             style="fill:#ece6da" />
        </g>
      </g>
    </g>
  </g>
</svg>
