<?xml version="1.0" encoding="UTF-8" standalone="no"?>
<!-- Created with Inkscape (http://www.inkscape.org/) -->

<svg
   width="48.296753mm"
   height="25.521666mm"
   viewBox="0 0 48.296753 25.521666"
   version="1.1"
   id="svg1"
   sodipodi:docname="jump-discontinuity.svg"
   inkscape:version="1.3.2 (091e20ef0f, 2023-11-25, custom)"
   xmlns:inkscape="http://www.inkscape.org/namespaces/inkscape"
   xmlns:sodipodi="http://sodipodi.sourceforge.net/DTD/sodipodi-0.dtd"
   xmlns="http://www.w3.org/2000/svg"
   xmlns:svg="http://www.w3.org/2000/svg"
   xmlns:ns1="http://www.iki.fi/pav/software/textext/">
  <sodipodi:namedview
     id="namedview1"
     pagecolor="#505050"
     bordercolor="#ffffff"
     borderopacity="1"
     inkscape:showpageshadow="0"
     inkscape:pageopacity="0"
     inkscape:pagecheckerboard="1"
     inkscape:deskcolor="#505050"
     inkscape:document-units="mm"
     inkscape:zoom="5.5945567"
     inkscape:cx="91.160037"
     inkscape:cy="74.804854"
     inkscape:window-width="1672"
     inkscape:window-height="1009"
     inkscape:window-x="0"
     inkscape:window-y="33"
     inkscape:window-maximized="1"
     inkscape:current-layer="layer1" />
  <defs
     id="defs1">
    <inkscape:path-effect
       effect="bspline"
       id="path-effect7"
       is_visible="true"
       lpeversion="1.3"
       weight="33.333333"
       steps="2"
       helper_size="0"
       apply_no_weight="true"
       apply_with_weight="true"
       only_selected="false"
       uniform="false" />
    <inkscape:path-effect
       effect="bspline"
       id="path-effect6"
       is_visible="true"
       lpeversion="1.3"
       weight="33.333333"
       steps="2"
       helper_size="0"
       apply_no_weight="true"
       apply_with_weight="true"
       only_selected="false"
       uniform="false" />
    <inkscape:path-effect
       effect="bspline"
       id="path-effect5"
       is_visible="true"
       lpeversion="1.3"
       weight="33.333333"
       steps="2"
       helper_size="0"
       apply_no_weight="true"
       apply_with_weight="true"
       only_selected="false"
       uniform="false" />
    <inkscape:path-effect
       effect="bspline"
       id="path-effect4"
       is_visible="true"
       lpeversion="1.3"
       weight="33.333333"
       steps="2"
       helper_size="0"
       apply_no_weight="true"
       apply_with_weight="true"
       only_selected="false"
       uniform="false" />
    <inkscape:path-effect
       effect="bspline"
       id="path-effect3"
       is_visible="true"
       lpeversion="1.3"
       weight="33.333333"
       steps="2"
       helper_size="0"
       apply_no_weight="true"
       apply_with_weight="true"
       only_selected="false"
       uniform="false" />
    <g
       id="id-6b808838-0427-4104-bed8-00f42ca0b80b-5">
      <g
         id="id-7c45cbac-0535-4834-94cf-6d93ac93e9a5-6">
        <path
           d="m 3.953125,-3.78125 c -0.171875,0 -0.296875,0 -0.4375,0.125 -0.171875,0.15625 -0.1875,0.328125 -0.1875,0.390625 0,0.25 0.1875,0.359375 0.375,0.359375 0.28125,0 0.546875,-0.25 0.546875,-0.640625 0,-0.484375 -0.46875,-0.859375 -1.171875,-0.859375 -1.34375,0 -2.671875,1.421875 -2.671875,2.828125 0,0.90625 0.578125,1.6875 1.625,1.6875 1.421875,0 2.25,-1.0625 2.25,-1.171875 0,-0.0625 -0.046875,-0.140625 -0.109375,-0.140625 -0.0625,0 -0.078125,0.03125 -0.140625,0.109375 -0.78125,0.984375 -1.875,0.984375 -1.984375,0.984375 -0.625,0 -0.90625,-0.484375 -0.90625,-1.09375 0,-0.40625 0.203125,-1.375 0.546875,-1.984375 0.3125,-0.578125 0.859375,-1 1.40625,-1 0.328125,0 0.71875,0.125 0.859375,0.40625 z m 0,0"
           id="id-84345e8d-3b6d-492d-9502-59aee83cce46-2" />
      </g>
      <g
         id="id-fb6dc80e-78d0-4dee-82fb-63521003ff32-9">
        <path
           d="M 2.625,-4.359375 C 1.390625,-4.0625 0.421875,-2.765625 0.421875,-1.5625 0.421875,-0.59375 1.0625,0.125 2,0.125 c 1.15625,0 1.984375,-1.578125 1.984375,-2.953125 0,-0.90625 -0.390625,-1.40625 -0.734375,-1.84375 C 2.890625,-5.125 2.296875,-5.875 2.296875,-6.3125 c 0,-0.21875 0.203125,-0.453125 0.546875,-0.453125 0.3125,0 0.5,0.125 0.71875,0.265625 0.203125,0.125 0.390625,0.25 0.546875,0.25 C 4.359375,-6.25 4.5,-6.484375 4.5,-6.65625 4.5,-6.875 4.34375,-6.890625 3.984375,-6.984375 3.46875,-7.09375 3.328125,-7.09375 3.171875,-7.09375 c -0.78125,0 -1.140625,0.4375 -1.140625,1.03125 0,0.546875 0.296875,1.09375 0.59375,1.703125 z m 0.125,0.21875 c 0.25,0.46875 0.546875,1 0.546875,1.71875 0,0.65625 -0.375,2.328125 -1.296875,2.328125 -0.546875,0 -0.96875,-0.421875 -0.96875,-1.1875 0,-0.625 0.375,-2.5 1.71875,-2.859375 z m 0,0"
           id="id-26a7d218-c46c-49f8-a938-5ac8eb4b1270-1" />
      </g>
      <g
         id="id-25c38fca-826c-4a28-8e9e-b9e4480a33b1-2">
        <path
           d="m 6.5625,-2.296875 c 0.171875,0 0.359375,0 0.359375,-0.203125 0,-0.1875 -0.1875,-0.1875 -0.359375,-0.1875 H 1.171875 c -0.171875,0 -0.34375,0 -0.34375,0.1875 0,0.203125 0.171875,0.203125 0.34375,0.203125 z m 0,0"
           id="id-d31f049a-0af3-419b-a17b-16c20adc6a1b-7" />
      </g>
    </g>
  </defs>
  <g
     inkscape:label="Layer 1"
     inkscape:groupmode="layer"
     id="layer1"
     transform="translate(-42.9383, -87.9365)">
    <path
       style="fill:none;stroke:#ece6da;stroke-width:0.183247;stroke-dasharray:none"
       d="M 47.519875,87.936535 V 113.4582"
       id="path1" />
    <path
       style="fill:none;stroke:#ece6da;stroke-width:0.228778;stroke-dasharray:none"
       d="M 42.938333,108.7762 H 91.11939"
       id="path2" />
    <path
       id="path3"
       style="fill:none;stroke:#e6cf57;stroke-width:0.253;stroke-dasharray:none"
       d="M 69.777819 97.290251 C 70.331702 97.007729 70.905303 96.707588 71.498879 96.394017 C 76.483408 93.76082 82.876383 90.180673 86.381246 89.087932 C 89.886109 87.995191 90.502748 89.389858 91.11939 90.784551 " />
    <path
       id="path5"
       style="fill:none;stroke:#e6cf57;stroke-width:0.253;stroke-dasharray:none"
       d="m 47.711816,99.893159 c 2.814878,-2.06475 5.610525,-4.052162 7.540461,-2.559213 1.973799,1.52688 3.042062,6.693914 5.364168,8.434404 1.996347,1.49633 4.919307,0.46004 8.867398,-1.53336" />
    <path
       id="path4"
       style="fill:none;stroke:#a2a89b;stroke-width:0.253;stroke-dasharray:none"
       d="m 47.519875,100.03402 c 0.06398,-0.04697 0.127968,-0.09394 0.191941,-0.140861" />
    <path
       id="path7"
       style="opacity:1;fill:none;stroke:#efdba4;stroke-width:0.152227;stroke-dasharray:0.608906, 0.152227;stroke-dashoffset:0;paint-order:stroke fill markers"
       d="m 69.426826,97.89747 v 11.20409" />
    <circle
       style="opacity:1;fill:none;stroke:#e6cf57;stroke-width:0.15;paint-order:stroke fill markers;stroke-dasharray:none"
       id="path6"
       cx="69.426826"
       cy="97.444771"
       r="0.42613545" />
    <circle
       style="fill:#ddca22;stroke:#e6cf57;stroke-width:0.15;stroke-dasharray:none;paint-order:stroke fill markers"
       id="path6-5"
       cx="69.426826"
       cy="104.25767"
       r="0.42613545" />
    <g
       transform="matrix(0.3446158,0,0,0.3446158,68.83516,109.69271)"
       ns1:version="1.10.2"
       ns1:texconverter="pdflatex"
       ns1:pdfconverter="inkscape"
       ns1:text="$$c$$"
       ns1:preamble="/home/mel/.config/inkscape/extensions/textext/default_packages.tex"
       ns1:scale="0.29742396067782007"
       ns1:alignment="middle center"
       ns1:stroke-to-path="0"
       ns1:inkscapeversion="1.3.2"
       id="g6957"
       ns1:jacobian_sqrt="0.104925"
       style="fill:#efdba4">
      <defs
         id="id-9933ce97-6ba1-4c65-883d-a41627eafc3d">
        <g
           id="id-0ef09ddd-8db0-4dd8-9d10-23a6fb0c2434">
          <g
             id="id-59d6a35e-5d84-46a9-923a-44feb83a79fa">
            <path
               d="m 3.953125,-3.78125 c -0.171875,0 -0.296875,0 -0.4375,0.125 -0.171875,0.15625 -0.1875,0.328125 -0.1875,0.390625 0,0.25 0.1875,0.359375 0.375,0.359375 0.28125,0 0.546875,-0.25 0.546875,-0.640625 0,-0.484375 -0.46875,-0.859375 -1.171875,-0.859375 -1.34375,0 -2.671875,1.421875 -2.671875,2.828125 0,0.90625 0.578125,1.6875 1.625,1.6875 1.421875,0 2.25,-1.0625 2.25,-1.171875 0,-0.0625 -0.046875,-0.140625 -0.109375,-0.140625 -0.0625,0 -0.078125,0.03125 -0.140625,0.109375 -0.78125,0.984375 -1.875,0.984375 -1.984375,0.984375 -0.625,0 -0.90625,-0.484375 -0.90625,-1.09375 0,-0.40625 0.203125,-1.375 0.546875,-1.984375 0.3125,-0.578125 0.859375,-1 1.40625,-1 0.328125,0 0.71875,0.125 0.859375,0.40625 z m 0,0"
               id="id-ee6c97c4-5c2b-495b-8766-d9b347fdaa2f" />
          </g>
        </g>
      </defs>
      <g
         fill="#000000"
         fill-opacity="1"
         id="id-9433fe6f-e111-460e-8e6d-d550c2fa50ea"
         transform="translate(-303.874,-142.314)"
         style="fill:#efdba4">
        <g
           transform="translate(303.468,146.72)"
           id="g5865"
           style="fill:#efdba4">
          <path
             d="m 3.953125,-3.78125 c -0.171875,0 -0.296875,0 -0.4375,0.125 -0.171875,0.15625 -0.1875,0.328125 -0.1875,0.390625 0,0.25 0.1875,0.359375 0.375,0.359375 0.28125,0 0.546875,-0.25 0.546875,-0.640625 0,-0.484375 -0.46875,-0.859375 -1.171875,-0.859375 -1.34375,0 -2.671875,1.421875 -2.671875,2.828125 0,0.90625 0.578125,1.6875 1.625,1.6875 1.421875,0 2.25,-1.0625 2.25,-1.171875 0,-0.0625 -0.046875,-0.140625 -0.109375,-0.140625 -0.0625,0 -0.078125,0.03125 -0.140625,0.109375 -0.78125,0.984375 -1.875,0.984375 -1.984375,0.984375 -0.625,0 -0.90625,-0.484375 -0.90625,-1.09375 0,-0.40625 0.203125,-1.375 0.546875,-1.984375 0.3125,-0.578125 0.859375,-1 1.40625,-1 0.328125,0 0.71875,0.125 0.859375,0.40625 z m 0,0"
             id="id-0f764059-d0e0-422b-902b-c70b4e1549c9"
             style="fill:#efdba4" />
        </g>
      </g>
    </g>
  </g>
</svg>
