<?xml version="1.0" encoding="UTF-8" standalone="no"?>
<!-- Created with Inkscape (http://www.inkscape.org/) -->

<svg
   width="41.672058mm"
   height="20.125401mm"
   viewBox="0 0 41.672058 20.1254"
   version="1.1"
   id="svg1"
   inkscape:version="1.3.2 (091e20ef0f, 2023-11-25, custom)"
   sodipodi:docname="topologist-sine-curve.svg"
   xmlns:inkscape="http://www.inkscape.org/namespaces/inkscape"
   xmlns:sodipodi="http://sodipodi.sourceforge.net/DTD/sodipodi-0.dtd"
   xmlns="http://www.w3.org/2000/svg"
   xmlns:svg="http://www.w3.org/2000/svg"
   xmlns:ns32="http://www.iki.fi/pav/software/textext/">
  <sodipodi:namedview
     id="namedview1"
     pagecolor="#505050"
     bordercolor="#ffffff"
     borderopacity="1"
     inkscape:showpageshadow="0"
     inkscape:pageopacity="0"
     inkscape:pagecheckerboard="1"
     inkscape:deskcolor="#505050"
     inkscape:document-units="mm"
     inkscape:zoom="5.5945567"
     inkscape:cx="60.237123"
     inkscape:cy="38.34084"
     inkscape:window-width="1672"
     inkscape:window-height="1009"
     inkscape:window-x="0"
     inkscape:window-y="33"
     inkscape:window-maximized="1"
     inkscape:current-layer="layer1" />
  <defs
     id="defs1" />
  <g
     inkscape:label="Layer 1"
     inkscape:groupmode="layer"
     id="layer1"
     transform="translate(-79.407971,-89.1309)">
    <path
       style="fill:none;stroke:#ece6da;stroke-width:0.0763129;stroke-dasharray:none;paint-order:stroke fill markers"
       d="M 81.062229,89.848862 V 109.2563"
       id="path1" />
    <path
       style="fill:none;stroke:#ece6da;stroke-width:0.176765;stroke-dasharray:none;paint-order:stroke fill markers"
       d="M 121.08003,99.552277 H 79.407971"
       id="path2" />
    <path
       style="fill:none;stroke:#ddca22;stroke-width:0.2;stroke-dasharray:none;paint-order:stroke fill markers"
       d="m 100.29349,99.552405 c 6.84363,-27.062026 13.63762,27.061515 20.48126,0"
       title="t sin(t)"
       id="path3"
       sodipodi:nodetypes="cc" />
    <path
       style="fill:none;stroke:#ddca22;stroke-width:0.2;stroke-dasharray:none;paint-order:stroke fill markers"
       d="m 91.377266,99.552405 c 2.972092,-27.234801 5.944131,27.234285 8.916224,0"
       title="t sin(t)"
       id="path3-5" />
    <path
       style="fill:none;stroke:#ddca22;stroke-width:0.2;stroke-dasharray:none;paint-order:stroke fill markers"
       d="m 86.735761,99.552405 c 1.546137,-27.328246 3.092246,27.327725 4.638385,0"
       title="t sin(t)"
       id="path3-5-2" />
    <path
       style="fill:none;stroke:#ddca22;stroke-width:0.2;stroke-dasharray:none;paint-order:stroke fill markers"
       d="m 83.973919,99.552405 c 0.926018,-27.383734 1.852018,27.383215 2.778037,0"
       title="t sin(t)"
       id="path3-5-2-7" />
    <path
       style="fill:none;stroke:#ddca22;stroke-width:0.2;stroke-dasharray:none;paint-order:stroke fill markers"
       d="m 82.466956,99.387113 c 0.502676,-27.434196 1.005342,27.433677 1.508018,0"
       title="t sin(t)"
       id="path3-5-2-7-6" />
    <path
       style="fill:none;stroke:#ddca22;stroke-width:0.2;stroke-dasharray:none;paint-order:stroke fill markers"
       d="m 81.691344,99.387113 c 0.258539,-27.474156 0.517073,27.473647 0.775612,0"
       title="t sin(t)"
       id="path3-5-2-7-6-6" />
    <path
       style="fill:none;stroke:#ddca22;stroke-width:0.2;stroke-dasharray:none;paint-order:stroke fill markers"
       d="m 81.322403,99.387113 c 0.122981,-27.505525 0.24596,27.505017 0.368941,0"
       title="t sin(t)"
       id="path3-5-2-7-6-6-3" />
    <path
       style="fill:none;stroke:#ddca22;stroke-width:0.2;stroke-dasharray:none;paint-order:stroke fill markers"
       d="m 81.164328,99.387113 c 0.05269,-27.52906 0.105383,27.528547 0.158075,0"
       title="t sin(t)"
       id="path3-5-2-7-6-6-3-2" />
    <path
       style="fill:none;stroke:#ddca22;stroke-width:0.2;stroke-dasharray:none;paint-order:stroke fill markers"
       d="M 81.151052,91.591846 V 107.51332"
       id="path6" />
    <g
       transform="matrix(0.104925,0,0,0.104925,93.414553,89.130926)"
       ns32:version="1.10.2"
       ns32:texconverter="pdflatex"
       ns32:pdfconverter="inkscape"
       ns32:text="$$T = (0 \\times [-1,1]) \\cup \\left \\{ \\left(t,sin \\left( \\frac{1}{t} \\right)\\right): 0 &lt; t \\leq 1\\right \\}$$"
       ns32:preamble="/home/mel/.config/inkscape/extensions/textext/default_packages.tex"
       ns32:scale="0.29742396067782007"
       ns32:alignment="middle center"
       ns32:stroke-to-path="0"
       id="g6966"
       ns32:jacobian_sqrt="0.104925"
       style="fill:#ddca22">
      <defs
         id="id-65c69873-729f-405d-82bc-fdd213891145">
        <g
           id="id-847f4ad9-5ed5-4ede-849a-d829683214db">
          <g
             id="id-585e7d59-cd7f-45e8-998e-6dd54d1e6ab6">
            <path
               d="m 4.25,-6.046875 c 0.078125,-0.28125 0.109375,-0.34375 0.234375,-0.375 0.09375,-0.015625 0.421875,-0.015625 0.625,-0.015625 1.015625,0 1.453125,0.03125 1.453125,0.8125 0,0.15625 -0.03125,0.546875 -0.078125,0.796875 0,0.046875 -0.03125,0.15625 -0.03125,0.1875 0,0.0625 0.03125,0.140625 0.125,0.140625 0.109375,0 0.125,-0.078125 0.15625,-0.234375 L 7,-6.46875 C 7.015625,-6.515625 7.015625,-6.609375 7.015625,-6.640625 7.015625,-6.75 6.921875,-6.75 6.75,-6.75 H 1.21875 c -0.234375,0 -0.25,0.015625 -0.328125,0.203125 l -0.59375,1.75 c 0,0.015625 -0.0625,0.15625 -0.0625,0.1875 0,0.046875 0.0625,0.109375 0.125,0.109375 0.09375,0 0.109375,-0.0625 0.171875,-0.21875 C 1.0625,-6.265625 1.328125,-6.4375 2.796875,-6.4375 H 3.1875 c 0.28125,0 0.28125,0.03125 0.28125,0.125 0,0.046875 -0.03125,0.171875 -0.046875,0.203125 L 2.09375,-0.78125 C 2,-0.421875 1.96875,-0.3125 0.90625,-0.3125 c -0.359375,0 -0.421875,0 -0.421875,0.1875 C 0.484375,0 0.59375,0 0.65625,0 c 0.265625,0 0.546875,-0.015625 0.8125,-0.015625 0.28125,0 0.578125,-0.015625 0.859375,-0.015625 0.28125,0 0.546875,0.015625 0.828125,0.015625 C 3.4375,-0.015625 3.734375,0 4.015625,0 c 0.09375,0 0.21875,0 0.21875,-0.203125 0,-0.109375 -0.078125,-0.109375 -0.34375,-0.109375 -0.234375,0 -0.375,0 -0.625,-0.015625 -0.296875,-0.03125 -0.375,-0.0625 -0.375,-0.21875 0,-0.015625 0,-0.0625 0.046875,-0.203125 z m 0,0"
               id="id-b9b4f990-88b5-4107-a1ee-de51f9965e26" />
          </g>
          <g
             id="id-8b962eb0-a797-4e1b-be59-3da2541efddd">
            <path
               d="m 2.03125,-0.015625 c 0,-0.65625 -0.25,-1.046875 -0.640625,-1.046875 -0.328125,0 -0.53125,0.25 -0.53125,0.53125 C 0.859375,-0.265625 1.0625,0 1.390625,0 1.5,0 1.640625,-0.046875 1.734375,-0.125 1.765625,-0.15625 1.78125,-0.15625 1.78125,-0.15625 c 0.015625,0 0.015625,0 0.015625,0.140625 0,0.75 -0.34375,1.34375 -0.671875,1.671875 -0.109375,0.109375 -0.109375,0.125 -0.109375,0.15625 0,0.078125 0.046875,0.109375 0.09375,0.109375 0.109375,0 0.921875,-0.765625 0.921875,-1.9375 z m 0,0"
               id="id-4dee8fbe-bd8b-41c4-80b5-a81853edd242" />
          </g>
          <g
             id="id-e1c8bf8c-17e0-4d02-9061-d20f6327d87a">
            <path
               d="m 2.046875,-3.984375 h 0.9375 c 0.203125,0 0.3125,0 0.3125,-0.203125 0,-0.109375 -0.109375,-0.109375 -0.28125,-0.109375 h -0.875 C 2.5,-5.71875 2.546875,-5.90625 2.546875,-5.96875 c 0,-0.171875 -0.125,-0.265625 -0.296875,-0.265625 -0.03125,0 -0.3125,0 -0.390625,0.359375 L 1.46875,-4.296875 h -0.9375 c -0.203125,0 -0.296875,0 -0.296875,0.1875 0,0.125 0.078125,0.125 0.28125,0.125 h 0.875 C 0.671875,-1.15625 0.625,-0.984375 0.625,-0.8125 0.625,-0.265625 1,0.109375 1.546875,0.109375 2.5625,0.109375 3.125,-1.34375 3.125,-1.421875 3.125,-1.53125 3.046875,-1.53125 3.015625,-1.53125 2.921875,-1.53125 2.90625,-1.5 2.859375,-1.390625 2.4375,-0.34375 1.90625,-0.109375 1.5625,-0.109375 c -0.203125,0 -0.3125,-0.125 -0.3125,-0.453125 0,-0.25 0.03125,-0.3125 0.0625,-0.484375 z m 0,0"
               id="id-317537a8-5f5f-4d68-ac36-f70e166987ce" />
          </g>
          <g
             id="id-580956ec-3e31-455b-8405-2a1ea772c042">
            <path
               d="M 3.890625,-3.734375 C 3.625,-3.71875 3.421875,-3.5 3.421875,-3.28125 c 0,0.140625 0.09375,0.296875 0.3125,0.296875 0.21875,0 0.453125,-0.171875 0.453125,-0.5625 C 4.1875,-4 3.765625,-4.40625 3,-4.40625 c -1.3125,0 -1.6875,1.015625 -1.6875,1.453125 0,0.78125 0.734375,0.921875 1.03125,0.984375 0.515625,0.109375 1.03125,0.21875 1.03125,0.765625 0,0.25 -0.21875,1.09375 -1.421875,1.09375 -0.140625,0 -0.90625,0 -1.140625,-0.53125 0.390625,0.046875 0.640625,-0.25 0.640625,-0.53125 0,-0.21875 -0.171875,-0.34375 -0.375,-0.34375 -0.265625,0 -0.5625,0.203125 -0.5625,0.65625 0,0.5625 0.578125,0.96875 1.421875,0.96875 1.625,0 2.015625,-1.203125 2.015625,-1.65625 0,-0.359375 -0.1875,-0.609375 -0.3125,-0.71875 -0.265625,-0.28125 -0.5625,-0.34375 -1,-0.421875 -0.359375,-0.078125 -0.75,-0.15625 -0.75,-0.609375 C 1.890625,-3.578125 2.125,-4.1875 3,-4.1875 c 0.25,0 0.75,0.078125 0.890625,0.453125 z m 0,0"
               id="id-3e1434ad-2e22-49b2-ba21-e2976d0e74f5" />
          </g>
          <g
             id="id-66a04dc6-2a9f-408d-80a8-a77a105ab4ac">
            <path
               d="m 2.828125,-6.234375 c 0,-0.203125 -0.140625,-0.359375 -0.359375,-0.359375 -0.28125,0 -0.546875,0.265625 -0.546875,0.53125 0,0.1875 0.140625,0.359375 0.375,0.359375 0.234375,0 0.53125,-0.234375 0.53125,-0.53125 z m -0.75,3.75 c 0.109375,-0.28125 0.109375,-0.3125 0.21875,-0.578125 0.078125,-0.203125 0.125,-0.34375 0.125,-0.53125 0,-0.4375 -0.3125,-0.8125 -0.8125,-0.8125 -0.9375,0 -1.3125,1.453125 -1.3125,1.53125 0,0.109375 0.09375,0.109375 0.109375,0.109375 0.109375,0 0.109375,-0.03125 0.15625,-0.1875 0.28125,-0.9375 0.671875,-1.234375 1.015625,-1.234375 0.078125,0 0.25,0 0.25,0.3125 0,0.21875 -0.078125,0.421875 -0.109375,0.53125 -0.078125,0.25 -0.53125,1.40625 -0.6875,1.84375 -0.109375,0.25 -0.234375,0.578125 -0.234375,0.796875 0,0.46875 0.34375,0.8125 0.8125,0.8125 0.9375,0 1.3125,-1.4375 1.3125,-1.53125 0,-0.109375 -0.09375,-0.109375 -0.125,-0.109375 -0.09375,0 -0.09375,0.03125 -0.140625,0.1875 -0.1875,0.625 -0.515625,1.234375 -1.015625,1.234375 -0.171875,0 -0.25,-0.09375 -0.25,-0.328125 0,-0.25 0.0625,-0.390625 0.296875,-1 z m 0,0"
               id="id-35850f88-a8fe-465c-a840-541e8179c172" />
          </g>
          <g
             id="id-6e11aac7-96d6-4663-9b72-3c654993a0e1">
            <path
               d="m 0.875,-0.59375 c -0.03125,0.15625 -0.09375,0.390625 -0.09375,0.4375 0,0.171875 0.140625,0.265625 0.296875,0.265625 0.125,0 0.296875,-0.078125 0.375,-0.28125 0,-0.015625 0.125,-0.484375 0.1875,-0.734375 l 0.21875,-0.890625 C 1.90625,-2.03125 1.96875,-2.25 2.03125,-2.46875 c 0.03125,-0.171875 0.109375,-0.46875 0.125,-0.5 0.140625,-0.3125 0.671875,-1.21875 1.625,-1.21875 0.453125,0 0.53125,0.375 0.53125,0.703125 0,0.609375 -0.484375,1.890625 -0.640625,2.3125 C 3.578125,-0.9375 3.5625,-0.8125 3.5625,-0.703125 c 0,0.46875 0.359375,0.8125 0.828125,0.8125 0.9375,0 1.296875,-1.453125 1.296875,-1.53125 0,-0.109375 -0.078125,-0.109375 -0.109375,-0.109375 -0.109375,0 -0.109375,0.03125 -0.15625,0.1875 -0.203125,0.671875 -0.53125,1.234375 -1.015625,1.234375 -0.171875,0 -0.234375,-0.09375 -0.234375,-0.328125 0,-0.25 0.078125,-0.484375 0.171875,-0.703125 0.1875,-0.53125 0.609375,-1.625 0.609375,-2.203125 0,-0.65625 -0.421875,-1.0625 -1.140625,-1.0625 -0.90625,0 -1.390625,0.640625 -1.5625,0.875 -0.046875,-0.5625 -0.453125,-0.875 -0.921875,-0.875 -0.453125,0 -0.640625,0.390625 -0.734375,0.5625 C 0.421875,-3.5 0.296875,-2.90625 0.296875,-2.875 c 0,0.109375 0.09375,0.109375 0.109375,0.109375 0.109375,0 0.109375,-0.015625 0.171875,-0.234375 0.171875,-0.703125 0.375,-1.1875 0.734375,-1.1875 0.1875,0 0.296875,0.125 0.296875,0.453125 0,0.21875 -0.03125,0.328125 -0.15625,0.84375 z m 0,0"
               id="id-7affb20c-b38c-4ec0-bc80-21422547fecd" />
          </g>
          <g
             id="id-09934217-4edb-428d-b4ca-aedf546d331b">
            <path
               d="m 6.734375,-4.96875 c 0.109375,-0.0625 0.1875,-0.109375 0.1875,-0.21875 0,-0.109375 -0.09375,-0.203125 -0.203125,-0.203125 -0.03125,0 -0.046875,0 -0.171875,0.078125 l -5.53125,2.59375 c -0.109375,0.0625 -0.1875,0.109375 -0.1875,0.21875 0,0.125 0.078125,0.171875 0.1875,0.234375 l 5.53125,2.59375 C 6.671875,0.40625 6.6875,0.40625 6.71875,0.40625 c 0.109375,0 0.203125,-0.09375 0.203125,-0.203125 0,-0.109375 -0.078125,-0.15625 -0.1875,-0.21875 L 1.5,-2.5 Z m 0,0"
               id="id-73399bbb-c98e-4532-9b22-272867aaf650" />
          </g>
          <g
             id="id-9548d03e-dc00-4e64-948a-79110fa116c9">
            <path
               d="m 6.84375,-3.265625 c 0.15625,0 0.34375,0 0.34375,-0.1875 C 7.1875,-3.65625 7,-3.65625 6.859375,-3.65625 h -5.96875 c -0.140625,0 -0.328125,0 -0.328125,0.203125 0,0.1875 0.1875,0.1875 0.328125,0.1875 z m 0.015625,1.9375 c 0.140625,0 0.328125,0 0.328125,-0.203125 0,-0.1875 -0.1875,-0.1875 -0.34375,-0.1875 H 0.890625 c -0.140625,0 -0.328125,0 -0.328125,0.1875 0,0.203125 0.1875,0.203125 0.328125,0.203125 z m 0,0"
               id="id-4fc1a09c-4ab8-4d34-9f6e-e4ff1e6f5d32" />
          </g>
          <g
             id="id-b02c7710-8f35-4c99-b652-492d369e2902">
            <path
               d="m 3.296875,2.390625 c 0,-0.03125 0,-0.046875 -0.171875,-0.21875 C 1.890625,0.921875 1.5625,-0.96875 1.5625,-2.5 c 0,-1.734375 0.375,-3.46875 1.609375,-4.703125 0.125,-0.125 0.125,-0.140625 0.125,-0.171875 0,-0.078125 -0.03125,-0.109375 -0.09375,-0.109375 -0.109375,0 -1,0.6875 -1.59375,1.953125 -0.5,1.09375 -0.625,2.203125 -0.625,3.03125 0,0.78125 0.109375,1.984375 0.65625,3.125 C 2.25,1.84375 3.09375,2.5 3.203125,2.5 c 0.0625,0 0.09375,-0.03125 0.09375,-0.109375 z m 0,0"
               id="id-c50db4c6-c4f7-47b0-b174-2b2b79e0d267" />
          </g>
          <g
             id="id-66cca71a-ace0-4dec-b60e-6dbf03da8d67">
            <path
               d="m 4.578125,-3.1875 c 0,-0.796875 -0.046875,-1.59375 -0.390625,-2.328125 -0.453125,-0.96875 -1.28125,-1.125 -1.6875,-1.125 -0.609375,0 -1.328125,0.265625 -1.75,1.1875 -0.3125,0.6875 -0.359375,1.46875 -0.359375,2.265625 0,0.75 0.03125,1.640625 0.453125,2.40625 0.421875,0.796875 1.15625,1 1.640625,1 0.53125,0 1.296875,-0.203125 1.734375,-1.15625 0.3125,-0.6875 0.359375,-1.46875 0.359375,-2.25 z M 2.484375,0 C 2.09375,0 1.5,-0.25 1.328125,-1.203125 1.21875,-1.796875 1.21875,-2.71875 1.21875,-3.3125 c 0,-0.640625 0,-1.296875 0.078125,-1.828125 0.1875,-1.1875 0.9375,-1.28125 1.1875,-1.28125 0.328125,0 0.984375,0.1875 1.171875,1.171875 0.109375,0.5625 0.109375,1.3125 0.109375,1.9375 0,0.75 0,1.421875 -0.109375,2.0625 C 3.5,-0.296875 2.9375,0 2.484375,0 Z m 0,0"
               id="id-594dea79-bc70-4f9e-a746-ba38a8ffd719" />
          </g>
          <g
             id="id-f595d80f-ce25-4031-8b87-59005bbe9d2c">
            <path
               d="M 2.546875,2.5 V 2.09375 h -0.96875 v -9.171875 h 0.96875 v -0.40625 h -1.375 V 2.5 Z m 0,0"
               id="id-ef40edd1-256b-4563-85c0-cc625221c9a0" />
          </g>
          <g
             id="id-ee745697-eea5-48bf-bf1a-c19f46ad4807">
            <path
               d="m 2.9375,-6.375 c 0,-0.25 0,-0.265625 -0.234375,-0.265625 C 2.078125,-6 1.203125,-6 0.890625,-6 v 0.3125 c 0.203125,0 0.78125,0 1.296875,-0.265625 v 5.171875 c 0,0.359375 -0.03125,0.46875 -0.921875,0.46875 h -0.3125 V 0 c 0.34375,-0.03125 1.203125,-0.03125 1.609375,-0.03125 0.390625,0 1.265625,0 1.609375,0.03125 v -0.3125 h -0.3125 c -0.90625,0 -0.921875,-0.109375 -0.921875,-0.46875 z m 0,0"
               id="id-7564b1c5-6897-4ea0-a01c-bf6cc5924bca" />
          </g>
          <g
             id="id-61e76a18-e266-468a-9397-18b1963cfe92">
            <path
               d="M 1.578125,-7.484375 H 0.21875 v 0.40625 H 1.1875 V 2.09375 H 0.21875 V 2.5 h 1.359375 z m 0,0"
               id="id-b7aa37db-efde-4547-8f54-b9a7d108c411" />
          </g>
          <g
             id="id-c6a7bf39-004a-4444-85d6-63c6b0e03c5b">
            <path
               d="m 2.875,-2.5 c 0,-0.765625 -0.109375,-1.96875 -0.65625,-3.109375 -0.59375,-1.21875 -1.453125,-1.875 -1.546875,-1.875 -0.0625,0 -0.109375,0.046875 -0.109375,0.109375 0,0.03125 0,0.046875 0.1875,0.234375 0.984375,0.984375 1.546875,2.5625 1.546875,4.640625 0,1.71875 -0.359375,3.46875 -1.59375,4.71875 C 0.5625,2.34375 0.5625,2.359375 0.5625,2.390625 0.5625,2.453125 0.609375,2.5 0.671875,2.5 0.765625,2.5 1.671875,1.8125 2.25,0.546875 2.765625,-0.546875 2.875,-1.65625 2.875,-2.5 Z m 0,0"
               id="id-5f2147a3-7db9-4190-a81b-21064d4ee742" />
          </g>
          <g
             id="id-e47ea434-a827-48e3-b27d-8ea66fa60b9e">
            <path
               d="m 1.90625,-3.765625 c 0,-0.296875 -0.234375,-0.53125 -0.515625,-0.53125 -0.296875,0 -0.53125,0.234375 -0.53125,0.53125 0,0.28125 0.234375,0.53125 0.53125,0.53125 0.28125,0 0.515625,-0.25 0.515625,-0.53125 z m 0,3.234375 c 0,-0.28125 -0.234375,-0.53125 -0.515625,-0.53125 -0.296875,0 -0.53125,0.25 -0.53125,0.53125 C 0.859375,-0.234375 1.09375,0 1.390625,0 1.671875,0 1.90625,-0.234375 1.90625,-0.53125 Z m 0,0"
               id="id-ae474c0b-297f-498f-9ebb-be168979f80a" />
          </g>
          <g
             id="id-b3200c38-1d36-408a-9a50-0f20e99707bf">
            <path
               d="M 3.875,-2.765625 1.890625,-4.75 C 1.765625,-4.875 1.75,-4.890625 1.671875,-4.890625 1.5625,-4.890625 1.46875,-4.8125 1.46875,-4.6875 c 0,0.0625 0.015625,0.078125 0.125,0.1875 l 2,2 -2,2.015625 c -0.109375,0.109375 -0.125,0.125 -0.125,0.1875 0,0.125 0.09375,0.203125 0.203125,0.203125 0.078125,0 0.09375,-0.015625 0.21875,-0.140625 L 3.875,-2.21875 l 2.0625,2.0625 c 0.015625,0.015625 0.078125,0.0625 0.140625,0.0625 0.125,0 0.203125,-0.078125 0.203125,-0.203125 0,-0.015625 0,-0.046875 -0.03125,-0.109375 C 6.234375,-0.421875 4.65625,-1.984375 4.15625,-2.5 l 1.828125,-1.8125 c 0.046875,-0.0625 0.203125,-0.1875 0.25,-0.25 0,-0.015625 0.046875,-0.0625 0.046875,-0.125 0,-0.125 -0.078125,-0.203125 -0.203125,-0.203125 C 6,-4.890625 5.96875,-4.859375 5.859375,-4.75 Z m 0,0"
               id="id-972dc360-bc9d-420f-bc69-43cf2e885f59" />
          </g>
          <g
             id="id-26a520a7-1a57-49f9-bce1-8f25176f1a22">
            <path
               d="m 6.5625,-2.296875 c 0.171875,0 0.359375,0 0.359375,-0.203125 0,-0.1875 -0.1875,-0.1875 -0.359375,-0.1875 H 1.171875 c -0.171875,0 -0.34375,0 -0.34375,0.1875 0,0.203125 0.171875,0.203125 0.34375,0.203125 z m 0,0"
               id="id-12f969ac-2690-4924-a2f0-48cd8c5c841f" />
          </g>
          <g
             id="id-e3ed9d68-45bf-411f-be18-a6448e0b2f63">
            <path
               d="m 6.09375,-5.609375 c 0,-0.171875 0,-0.359375 -0.203125,-0.359375 -0.203125,0 -0.203125,0.1875 -0.203125,0.359375 V -2 c 0,1.5 -1.625,1.828125 -2.375,1.828125 -0.4375,0 -1.0625,-0.09375 -1.59375,-0.4375 C 0.953125,-1.09375 0.953125,-1.734375 0.953125,-2 v -3.609375 c 0,-0.171875 0,-0.359375 -0.203125,-0.359375 -0.203125,0 -0.203125,0.1875 -0.203125,0.359375 v 3.65625 c 0,1.515625 1.53125,2.171875 2.765625,2.171875 1.296875,0 2.78125,-0.703125 2.78125,-2.15625 z m 0,0"
               id="id-5fe08aa8-aa13-4ca8-9762-41869f471f73" />
          </g>
          <g
             id="id-853b38a9-1342-4610-8f78-175fb35757fd">
            <path
               d="m 6.734375,-5.921875 c 0.109375,-0.046875 0.1875,-0.09375 0.1875,-0.21875 0,-0.109375 -0.078125,-0.203125 -0.203125,-0.203125 -0.046875,0 -0.140625,0.046875 -0.171875,0.0625 L 1.03125,-3.671875 c -0.171875,0.078125 -0.203125,0.140625 -0.203125,0.21875 0,0.09375 0.0625,0.15625 0.203125,0.21875 l 5.515625,2.59375 C 6.671875,-0.5625 6.6875,-0.5625 6.71875,-0.5625 c 0.109375,0 0.203125,-0.09375 0.203125,-0.203125 C 6.921875,-0.859375 6.875,-0.921875 6.703125,-1 L 1.5,-3.453125 Z M 6.5625,1.359375 c 0.171875,0 0.359375,0 0.359375,-0.1875 0,-0.203125 -0.21875,-0.203125 -0.359375,-0.203125 h -5.375 c -0.15625,0 -0.359375,0 -0.359375,0.203125 0,0.1875 0.171875,0.1875 0.34375,0.1875 z m 0,0"
               id="id-a3bea159-6154-4ecf-b90d-310465b99e5a" />
          </g>
          <g
             id="id-a5ac0561-d6c2-404b-81d7-4769f49c01a4">
            <path
               d="m 4.140625,14.84375 c 0,-0.46875 0,-1.203125 -0.625,-2.015625 C 3.125,12.328125 2.5625,11.875 1.875,11.5625 3.8125,10.625 4.140625,9.1875 4.140625,8.625 v -5.75 c 0,-0.609375 0,-1.890625 1.9375,-2.84375 0.078125,-0.046875 0.078125,-0.0625 0.078125,-0.203125 0,-0.21875 0,-0.234375 -0.21875,-0.234375 -0.140625,0 -0.15625,0 -0.421875,0.125 C 4.53125,0.203125 3.5625,1 3.34375,2.21875 3.3125,2.40625 3.3125,2.5 3.3125,3.171875 V 7.78125 c 0,0.296875 0,0.828125 0,0.9375 -0.09375,1.046875 -0.703125,1.953125 -1.84375,2.578125 -0.15625,0.09375 -0.15625,0.09375 -0.15625,0.25 0,0.171875 0,0.1875 0.140625,0.265625 0.671875,0.375 1.625,1.09375 1.828125,2.328125 C 3.3125,14.375 3.3125,14.390625 3.3125,14.5 v 5.921875 c 0,1.453125 1,2.390625 2.234375,2.984375 0.21875,0.109375 0.25,0.109375 0.390625,0.109375 0.21875,0 0.21875,0 0.21875,-0.21875 0,-0.15625 0,-0.171875 -0.078125,-0.21875 C 5.65625,22.875 4.375,22.234375 4.171875,20.796875 c -0.03125,-0.140625 -0.03125,-0.25 -0.03125,-0.84375 z m 0,0"
               id="id-2af03087-6468-42da-a580-3ed89f613ac0" />
          </g>
          <g
             id="id-92615133-6e5f-4c06-8599-a0ba6d558640">
            <path
               d="m 6.984375,23.421875 c 0,-0.04687 -0.03125,-0.0625 -0.046875,-0.09375 -0.375,-0.375 -1.03125,-1.03125 -1.703125,-2.109375 C 3.625,18.640625 2.90625,15.40625 2.90625,11.5625 c 0,-2.6875 0.359375,-6.140625 2,-9.109375 C 5.6875,1.03125 6.515625,0.21875 6.953125,-0.21875 c 0.03125,-0.03125 0.03125,-0.046875 0.03125,-0.078125 0,-0.109375 -0.078125,-0.109375 -0.21875,-0.109375 -0.140625,0 -0.15625,0 -0.3125,0.15625 -3.328125,3.046875 -4.375,7.609375 -4.375,11.796875 0,3.921875 0.890625,7.875 3.421875,10.859375 0.203125,0.21875 0.578125,0.625 0.984375,0.984375 0.125,0.125 0.140625,0.125 0.28125,0.125 0.140625,0 0.21875,0 0.21875,-0.09375 z m 0,0"
               id="id-a61cf720-2737-4964-85b6-10d10249748e" />
          </g>
          <g
             id="id-845c4cbd-9119-4ee9-841a-eb5751a49749">
            <path
               d="M 5.25,11.5625 C 5.25,7.640625 4.359375,3.703125 1.828125,0.71875 1.625,0.484375 1.25,0.078125 0.84375,-0.28125 c -0.125,-0.125 -0.140625,-0.125 -0.28125,-0.125 -0.125,0 -0.21875,0 -0.21875,0.109375 0,0.03125 0.046875,0.078125 0.0625,0.09375 0.34375,0.359375 1.015625,1.03125 1.6875,2.109375 1.609375,2.5625 2.328125,5.8125 2.328125,9.640625 0,2.6875 -0.359375,6.140625 -2,9.125 -0.78125,1.40625 -1.609375,2.234375 -2.03125,2.65625 -0.015625,0.03125 -0.046875,0.0625 -0.046875,0.09375 0,0.09375 0.09375,0.09375 0.21875,0.09375 0.140625,0 0.15625,0 0.3125,-0.15625 C 4.203125,20.328125 5.25,15.765625 5.25,11.5625 Z m 0,0"
               id="id-8a062a9a-feca-4265-ac91-14bdacb35adc" />
          </g>
          <g
             id="id-9b596870-accc-4120-975f-ece871626737">
            <path
               d="m 4.140625,14.6875 c 0,-1.1875 0.609375,-2.203125 1.9375,-2.921875 0.078125,-0.03125 0.078125,-0.04687 0.078125,-0.203125 0,-0.171875 0,-0.171875 -0.109375,-0.234375 C 4.25,10.375 4.140625,8.90625 4.140625,8.609375 V 2.6875 C 4.140625,1.25 3.15625,0.296875 1.90625,-0.296875 1.6875,-0.40625 1.671875,-0.40625 1.53125,-0.40625 c -0.21875,0 -0.21875,0.015625 -0.21875,0.234375 0,0.140625 0,0.15625 0.078125,0.21875 C 1.828125,0.25 3.09375,0.890625 3.296875,2.328125 3.3125,2.46875 3.3125,2.578125 3.3125,3.171875 V 8.28125 c 0,0.46875 0,1.203125 0.640625,2 0.390625,0.5 0.953125,0.96875 1.640625,1.265625 -1.9375,0.9375 -2.28125,2.375 -2.28125,2.953125 v 5.734375 c 0,0.515625 0,1.09375 -0.578125,1.828125 -0.4375,0.5625 -0.9375,0.8125 -1.359375,1.03125 -0.0625,0.03125 -0.0625,0.07813 -0.0625,0.203125 0,0.203125 0,0.21875 0.21875,0.21875 0.140625,0 0.15625,0 0.40625,-0.125 1,-0.484375 1.96875,-1.265625 2.171875,-2.484375 0.03125,-0.203125 0.03125,-0.296875 0.03125,-0.953125 z m 0,0"
               id="id-37867bc0-aa1c-4eaf-b244-4b3816eaa9b4" />
          </g>
        </g>
      </defs>
      <g
         fill="#000000"
         fill-opacity="1"
         id="id-fb756eb0-d3e3-48c6-a87e-563ec81f51a8"
         transform="translate(-201.864,-135.753)"
         style="fill:#ddca22">
        <g
           transform="translate(201.63,150.207)"
           id="g9678"
           style="fill:#ddca22">
          <path
             d="m 4.25,-6.046875 c 0.078125,-0.28125 0.109375,-0.34375 0.234375,-0.375 0.09375,-0.015625 0.421875,-0.015625 0.625,-0.015625 1.015625,0 1.453125,0.03125 1.453125,0.8125 0,0.15625 -0.03125,0.546875 -0.078125,0.796875 0,0.046875 -0.03125,0.15625 -0.03125,0.1875 0,0.0625 0.03125,0.140625 0.125,0.140625 0.109375,0 0.125,-0.078125 0.15625,-0.234375 L 7,-6.46875 C 7.015625,-6.515625 7.015625,-6.609375 7.015625,-6.640625 7.015625,-6.75 6.921875,-6.75 6.75,-6.75 H 1.21875 c -0.234375,0 -0.25,0.015625 -0.328125,0.203125 l -0.59375,1.75 c 0,0.015625 -0.0625,0.15625 -0.0625,0.1875 0,0.046875 0.0625,0.109375 0.125,0.109375 0.09375,0 0.109375,-0.0625 0.171875,-0.21875 C 1.0625,-6.265625 1.328125,-6.4375 2.796875,-6.4375 H 3.1875 c 0.28125,0 0.28125,0.03125 0.28125,0.125 0,0.046875 -0.03125,0.171875 -0.046875,0.203125 L 2.09375,-0.78125 C 2,-0.421875 1.96875,-0.3125 0.90625,-0.3125 c -0.359375,0 -0.421875,0 -0.421875,0.1875 C 0.484375,0 0.59375,0 0.65625,0 c 0.265625,0 0.546875,-0.015625 0.8125,-0.015625 0.28125,0 0.578125,-0.015625 0.859375,-0.015625 0.28125,0 0.546875,0.015625 0.828125,0.015625 C 3.4375,-0.015625 3.734375,0 4.015625,0 c 0.09375,0 0.21875,0 0.21875,-0.203125 0,-0.109375 -0.078125,-0.109375 -0.34375,-0.109375 -0.234375,0 -0.375,0 -0.625,-0.015625 -0.296875,-0.03125 -0.375,-0.0625 -0.375,-0.21875 0,-0.015625 0,-0.0625 0.046875,-0.203125 z m 0,0"
             id="id-29bf39e3-78f9-4a2e-9e47-0c0ded7b8ca4"
             style="fill:#ddca22" />
        </g>
      </g>
      <g
         fill="#000000"
         fill-opacity="1"
         id="id-7960c07c-05ee-48f4-9be1-83e7d5bfe3e5"
         transform="translate(-201.864,-135.753)"
         style="fill:#ddca22">
        <g
           transform="translate(211.603,150.207)"
           id="g2254"
           style="fill:#ddca22">
          <path
             d="m 6.84375,-3.265625 c 0.15625,0 0.34375,0 0.34375,-0.1875 C 7.1875,-3.65625 7,-3.65625 6.859375,-3.65625 h -5.96875 c -0.140625,0 -0.328125,0 -0.328125,0.203125 0,0.1875 0.1875,0.1875 0.328125,0.1875 z m 0.015625,1.9375 c 0.140625,0 0.328125,0 0.328125,-0.203125 0,-0.1875 -0.1875,-0.1875 -0.34375,-0.1875 H 0.890625 c -0.140625,0 -0.328125,0 -0.328125,0.1875 0,0.203125 0.1875,0.203125 0.328125,0.203125 z m 0,0"
             id="id-616216d2-75a5-4c71-9c4d-9bda70f74cba"
             style="fill:#ddca22" />
        </g>
      </g>
      <g
         fill="#000000"
         fill-opacity="1"
         id="id-d1c076d2-8326-408b-ac4a-eff7a0a5d3cb"
         transform="translate(-201.864,-135.753)"
         style="fill:#ddca22">
        <g
           transform="translate(222.122,150.207)"
           id="g8686"
           style="fill:#ddca22">
          <path
             d="m 3.296875,2.390625 c 0,-0.03125 0,-0.046875 -0.171875,-0.21875 C 1.890625,0.921875 1.5625,-0.96875 1.5625,-2.5 c 0,-1.734375 0.375,-3.46875 1.609375,-4.703125 0.125,-0.125 0.125,-0.140625 0.125,-0.171875 0,-0.078125 -0.03125,-0.109375 -0.09375,-0.109375 -0.109375,0 -1,0.6875 -1.59375,1.953125 -0.5,1.09375 -0.625,2.203125 -0.625,3.03125 0,0.78125 0.109375,1.984375 0.65625,3.125 C 2.25,1.84375 3.09375,2.5 3.203125,2.5 c 0.0625,0 0.09375,-0.03125 0.09375,-0.109375 z m 0,0"
             id="id-b053fb01-e1aa-4b97-a692-54ec9844e728"
             style="fill:#ddca22" />
        </g>
        <g
           transform="translate(225.996,150.207)"
           id="g4069"
           style="fill:#ddca22">
          <path
             d="m 4.578125,-3.1875 c 0,-0.796875 -0.046875,-1.59375 -0.390625,-2.328125 -0.453125,-0.96875 -1.28125,-1.125 -1.6875,-1.125 -0.609375,0 -1.328125,0.265625 -1.75,1.1875 -0.3125,0.6875 -0.359375,1.46875 -0.359375,2.265625 0,0.75 0.03125,1.640625 0.453125,2.40625 0.421875,0.796875 1.15625,1 1.640625,1 0.53125,0 1.296875,-0.203125 1.734375,-1.15625 0.3125,-0.6875 0.359375,-1.46875 0.359375,-2.25 z M 2.484375,0 C 2.09375,0 1.5,-0.25 1.328125,-1.203125 1.21875,-1.796875 1.21875,-2.71875 1.21875,-3.3125 c 0,-0.640625 0,-1.296875 0.078125,-1.828125 0.1875,-1.1875 0.9375,-1.28125 1.1875,-1.28125 0.328125,0 0.984375,0.1875 1.171875,1.171875 0.109375,0.5625 0.109375,1.3125 0.109375,1.9375 0,0.75 0,1.421875 -0.109375,2.0625 C 3.5,-0.296875 2.9375,0 2.484375,0 Z m 0,0"
             id="id-02ff8309-01d0-4383-b64b-258d3bf18bc3"
             style="fill:#ddca22" />
        </g>
      </g>
      <g
         fill="#000000"
         fill-opacity="1"
         id="id-e05d7e60-4239-4fed-8351-7d37f9cfdbde"
         transform="translate(-201.864,-135.753)"
         style="fill:#ddca22">
        <g
           transform="translate(233.189,150.207)"
           id="g5461"
           style="fill:#ddca22">
          <path
             d="M 3.875,-2.765625 1.890625,-4.75 C 1.765625,-4.875 1.75,-4.890625 1.671875,-4.890625 1.5625,-4.890625 1.46875,-4.8125 1.46875,-4.6875 c 0,0.0625 0.015625,0.078125 0.125,0.1875 l 2,2 -2,2.015625 c -0.109375,0.109375 -0.125,0.125 -0.125,0.1875 0,0.125 0.09375,0.203125 0.203125,0.203125 0.078125,0 0.09375,-0.015625 0.21875,-0.140625 L 3.875,-2.21875 l 2.0625,2.0625 c 0.015625,0.015625 0.078125,0.0625 0.140625,0.0625 0.125,0 0.203125,-0.078125 0.203125,-0.203125 0,-0.015625 0,-0.046875 -0.03125,-0.109375 C 6.234375,-0.421875 4.65625,-1.984375 4.15625,-2.5 l 1.828125,-1.8125 c 0.046875,-0.0625 0.203125,-0.1875 0.25,-0.25 0,-0.015625 0.046875,-0.0625 0.046875,-0.125 0,-0.125 -0.078125,-0.203125 -0.203125,-0.203125 C 6,-4.890625 5.96875,-4.859375 5.859375,-4.75 Z m 0,0"
             id="id-8759bd68-aef9-4a87-8617-c4b90980d33c"
             style="fill:#ddca22" />
        </g>
      </g>
      <g
         fill="#000000"
         fill-opacity="1"
         id="id-e5b52d8a-7222-413e-921c-6ec0dbf395e1"
         transform="translate(-201.864,-135.753)"
         style="fill:#ddca22">
        <g
           transform="translate(243.151,150.207)"
           id="g1049"
           style="fill:#ddca22">
          <path
             d="M 2.546875,2.5 V 2.09375 h -0.96875 v -9.171875 h 0.96875 v -0.40625 h -1.375 V 2.5 Z m 0,0"
             id="id-0abc8690-fb1f-42ae-bd23-fc6630e1c19a"
             style="fill:#ddca22" />
        </g>
      </g>
      <g
         fill="#000000"
         fill-opacity="1"
         id="id-0426a146-95fb-45be-9c62-6ac21eca91d4"
         transform="translate(-201.864,-135.753)"
         style="fill:#ddca22">
        <g
           transform="translate(245.919,150.207)"
           id="g2784"
           style="fill:#ddca22">
          <path
             d="m 6.5625,-2.296875 c 0.171875,0 0.359375,0 0.359375,-0.203125 0,-0.1875 -0.1875,-0.1875 -0.359375,-0.1875 H 1.171875 c -0.171875,0 -0.34375,0 -0.34375,0.1875 0,0.203125 0.171875,0.203125 0.34375,0.203125 z m 0,0"
             id="id-d2b277ac-26aa-4552-8f49-8ec464bc4547"
             style="fill:#ddca22" />
        </g>
      </g>
      <g
         fill="#000000"
         fill-opacity="1"
         id="id-a4f3ab0b-bedd-4aab-ba63-1d407b1a7860"
         transform="translate(-201.864,-135.753)"
         style="fill:#ddca22">
        <g
           transform="translate(253.668,150.207)"
           id="g7363"
           style="fill:#ddca22">
          <path
             d="m 2.9375,-6.375 c 0,-0.25 0,-0.265625 -0.234375,-0.265625 C 2.078125,-6 1.203125,-6 0.890625,-6 v 0.3125 c 0.203125,0 0.78125,0 1.296875,-0.265625 v 5.171875 c 0,0.359375 -0.03125,0.46875 -0.921875,0.46875 h -0.3125 V 0 c 0.34375,-0.03125 1.203125,-0.03125 1.609375,-0.03125 0.390625,0 1.265625,0 1.609375,0.03125 v -0.3125 h -0.3125 c -0.90625,0 -0.921875,-0.109375 -0.921875,-0.46875 z m 0,0"
             id="id-52b981e3-5382-4380-ba21-ec4be051fbb4"
             style="fill:#ddca22" />
        </g>
      </g>
      <g
         fill="#000000"
         fill-opacity="1"
         id="id-5d59839a-7982-431d-b40d-92e6a1448ff8"
         transform="translate(-201.864,-135.753)"
         style="fill:#ddca22">
        <g
           transform="translate(258.649,150.207)"
           id="g8949"
           style="fill:#ddca22">
          <path
             d="m 2.03125,-0.015625 c 0,-0.65625 -0.25,-1.046875 -0.640625,-1.046875 -0.328125,0 -0.53125,0.25 -0.53125,0.53125 C 0.859375,-0.265625 1.0625,0 1.390625,0 1.5,0 1.640625,-0.046875 1.734375,-0.125 1.765625,-0.15625 1.78125,-0.15625 1.78125,-0.15625 c 0.015625,0 0.015625,0 0.015625,0.140625 0,0.75 -0.34375,1.34375 -0.671875,1.671875 -0.109375,0.109375 -0.109375,0.125 -0.109375,0.15625 0,0.078125 0.046875,0.109375 0.09375,0.109375 0.109375,0 0.921875,-0.765625 0.921875,-1.9375 z m 0,0"
             id="id-0823c967-04e4-4d85-98c7-a4192051404b"
             style="fill:#ddca22" />
        </g>
      </g>
      <g
         fill="#000000"
         fill-opacity="1"
         id="id-8c3dda07-f2c9-4fe2-bfe0-2e7f50b68e24"
         transform="translate(-201.864,-135.753)"
         style="fill:#ddca22">
        <g
           transform="translate(263.077,150.207)"
           id="g9186"
           style="fill:#ddca22">
          <path
             d="m 2.9375,-6.375 c 0,-0.25 0,-0.265625 -0.234375,-0.265625 C 2.078125,-6 1.203125,-6 0.890625,-6 v 0.3125 c 0.203125,0 0.78125,0 1.296875,-0.265625 v 5.171875 c 0,0.359375 -0.03125,0.46875 -0.921875,0.46875 h -0.3125 V 0 c 0.34375,-0.03125 1.203125,-0.03125 1.609375,-0.03125 0.390625,0 1.265625,0 1.609375,0.03125 v -0.3125 h -0.3125 c -0.90625,0 -0.921875,-0.109375 -0.921875,-0.46875 z m 0,0"
             id="id-95bbbbba-94b9-470c-9f0d-09538fac3c75"
             style="fill:#ddca22" />
        </g>
        <g
           transform="translate(268.058,150.207)"
           id="g1244"
           style="fill:#ddca22">
          <path
             d="M 1.578125,-7.484375 H 0.21875 v 0.40625 H 1.1875 V 2.09375 H 0.21875 V 2.5 h 1.359375 z m 0,0"
             id="id-ff3b2e61-bbc9-498a-b792-e36a0017ebf2"
             style="fill:#ddca22" />
        </g>
        <g
           transform="translate(270.826,150.207)"
           id="g7375"
           style="fill:#ddca22">
          <path
             d="m 2.875,-2.5 c 0,-0.765625 -0.109375,-1.96875 -0.65625,-3.109375 -0.59375,-1.21875 -1.453125,-1.875 -1.546875,-1.875 -0.0625,0 -0.109375,0.046875 -0.109375,0.109375 0,0.03125 0,0.046875 0.1875,0.234375 0.984375,0.984375 1.546875,2.5625 1.546875,4.640625 0,1.71875 -0.359375,3.46875 -1.59375,4.71875 C 0.5625,2.34375 0.5625,2.359375 0.5625,2.390625 0.5625,2.453125 0.609375,2.5 0.671875,2.5 0.765625,2.5 1.671875,1.8125 2.25,0.546875 2.765625,-0.546875 2.875,-1.65625 2.875,-2.5 Z m 0,0"
             id="id-13b90a2b-3859-4d0b-b961-a4d33e6a52cd"
             style="fill:#ddca22" />
        </g>
      </g>
      <g
         fill="#000000"
         fill-opacity="1"
         id="id-f3c169d7-8042-4cae-b995-91d4d8795215"
         transform="translate(-201.864,-135.753)"
         style="fill:#ddca22">
        <g
           transform="translate(276.914,150.207)"
           id="g7979"
           style="fill:#ddca22">
          <path
             d="m 6.09375,-5.609375 c 0,-0.171875 0,-0.359375 -0.203125,-0.359375 -0.203125,0 -0.203125,0.1875 -0.203125,0.359375 V -2 c 0,1.5 -1.625,1.828125 -2.375,1.828125 -0.4375,0 -1.0625,-0.09375 -1.59375,-0.4375 C 0.953125,-1.09375 0.953125,-1.734375 0.953125,-2 v -3.609375 c 0,-0.171875 0,-0.359375 -0.203125,-0.359375 -0.203125,0 -0.203125,0.1875 -0.203125,0.359375 v 3.65625 c 0,1.515625 1.53125,2.171875 2.765625,2.171875 1.296875,0 2.78125,-0.703125 2.78125,-2.15625 z m 0,0"
             id="id-db8f47a2-e49d-4544-af65-20c5698a3717"
             style="fill:#ddca22" />
        </g>
      </g>
      <g
         fill="#000000"
         fill-opacity="1"
         id="id-dee26902-9392-4b5c-9ba2-9c521ee0c51d"
         transform="translate(-201.864,-135.753)"
         style="fill:#ddca22">
        <g
           transform="translate(285.769,136.159)"
           id="g1012"
           style="fill:#ddca22">
          <path
             d="m 4.140625,14.84375 c 0,-0.46875 0,-1.203125 -0.625,-2.015625 C 3.125,12.328125 2.5625,11.875 1.875,11.5625 3.8125,10.625 4.140625,9.1875 4.140625,8.625 v -5.75 c 0,-0.609375 0,-1.890625 1.9375,-2.84375 0.078125,-0.046875 0.078125,-0.0625 0.078125,-0.203125 0,-0.21875 0,-0.234375 -0.21875,-0.234375 -0.140625,0 -0.15625,0 -0.421875,0.125 C 4.53125,0.203125 3.5625,1 3.34375,2.21875 3.3125,2.40625 3.3125,2.5 3.3125,3.171875 V 7.78125 c 0,0.296875 0,0.828125 0,0.9375 -0.09375,1.046875 -0.703125,1.953125 -1.84375,2.578125 -0.15625,0.09375 -0.15625,0.09375 -0.15625,0.25 0,0.171875 0,0.1875 0.140625,0.265625 0.671875,0.375 1.625,1.09375 1.828125,2.328125 C 3.3125,14.375 3.3125,14.390625 3.3125,14.5 v 5.921875 c 0,1.453125 1,2.390625 2.234375,2.984375 0.21875,0.109375 0.25,0.109375 0.390625,0.109375 0.21875,0 0.21875,0 0.21875,-0.21875 0,-0.15625 0,-0.171875 -0.078125,-0.21875 C 5.65625,22.875 4.375,22.234375 4.171875,20.796875 c -0.03125,-0.140625 -0.03125,-0.25 -0.03125,-0.84375 z m 0,0"
             id="id-28ae573f-e30c-4488-8451-d202f292990d"
             style="fill:#ddca22" />
        </g>
        <g
           transform="translate(293.241,136.159)"
           id="g4825"
           style="fill:#ddca22">
          <path
             d="m 6.984375,23.421875 c 0,-0.04687 -0.03125,-0.0625 -0.046875,-0.09375 -0.375,-0.375 -1.03125,-1.03125 -1.703125,-2.109375 C 3.625,18.640625 2.90625,15.40625 2.90625,11.5625 c 0,-2.6875 0.359375,-6.140625 2,-9.109375 C 5.6875,1.03125 6.515625,0.21875 6.953125,-0.21875 c 0.03125,-0.03125 0.03125,-0.046875 0.03125,-0.078125 0,-0.109375 -0.078125,-0.109375 -0.21875,-0.109375 -0.140625,0 -0.15625,0 -0.3125,0.15625 -3.328125,3.046875 -4.375,7.609375 -4.375,11.796875 0,3.921875 0.890625,7.875 3.421875,10.859375 0.203125,0.21875 0.578125,0.625 0.984375,0.984375 0.125,0.125 0.140625,0.125 0.28125,0.125 0.140625,0 0.21875,0 0.21875,-0.09375 z m 0,0"
             id="id-94fbea81-7bef-4669-b89c-770d219c9ef9"
             style="fill:#ddca22" />
        </g>
      </g>
      <g
         fill="#000000"
         fill-opacity="1"
         id="id-d56c3d9d-dfc9-471c-9ec1-06d060d1e50f"
         transform="translate(-201.864,-135.753)"
         style="fill:#ddca22">
        <g
           transform="translate(300.575,150.207)"
           id="g9661"
           style="fill:#ddca22">
          <path
             d="m 2.046875,-3.984375 h 0.9375 c 0.203125,0 0.3125,0 0.3125,-0.203125 0,-0.109375 -0.109375,-0.109375 -0.28125,-0.109375 h -0.875 C 2.5,-5.71875 2.546875,-5.90625 2.546875,-5.96875 c 0,-0.171875 -0.125,-0.265625 -0.296875,-0.265625 -0.03125,0 -0.3125,0 -0.390625,0.359375 L 1.46875,-4.296875 h -0.9375 c -0.203125,0 -0.296875,0 -0.296875,0.1875 0,0.125 0.078125,0.125 0.28125,0.125 h 0.875 C 0.671875,-1.15625 0.625,-0.984375 0.625,-0.8125 0.625,-0.265625 1,0.109375 1.546875,0.109375 2.5625,0.109375 3.125,-1.34375 3.125,-1.421875 3.125,-1.53125 3.046875,-1.53125 3.015625,-1.53125 2.921875,-1.53125 2.90625,-1.5 2.859375,-1.390625 2.4375,-0.34375 1.90625,-0.109375 1.5625,-0.109375 c -0.203125,0 -0.3125,-0.125 -0.3125,-0.453125 0,-0.25 0.03125,-0.3125 0.0625,-0.484375 z m 0,0"
             id="id-4e194959-11a7-40c5-b401-92ffc9e4b307"
             style="fill:#ddca22" />
        </g>
        <g
           transform="translate(304.172,150.207)"
           id="g9226"
           style="fill:#ddca22">
          <path
             d="m 2.03125,-0.015625 c 0,-0.65625 -0.25,-1.046875 -0.640625,-1.046875 -0.328125,0 -0.53125,0.25 -0.53125,0.53125 C 0.859375,-0.265625 1.0625,0 1.390625,0 1.5,0 1.640625,-0.046875 1.734375,-0.125 1.765625,-0.15625 1.78125,-0.15625 1.78125,-0.15625 c 0.015625,0 0.015625,0 0.015625,0.140625 0,0.75 -0.34375,1.34375 -0.671875,1.671875 -0.109375,0.109375 -0.109375,0.125 -0.109375,0.15625 0,0.078125 0.046875,0.109375 0.09375,0.109375 0.109375,0 0.921875,-0.765625 0.921875,-1.9375 z m 0,0"
             id="id-7a0814ae-bf03-4db3-acda-0164162e33df"
             style="fill:#ddca22" />
        </g>
      </g>
      <g
         fill="#000000"
         fill-opacity="1"
         id="id-12f20181-7377-4b28-b909-8b6d882b4d31"
         transform="translate(-201.864,-135.753)"
         style="fill:#ddca22">
        <g
           transform="translate(308.604,150.207)"
           id="g6944"
           style="fill:#ddca22">
          <path
             d="M 3.890625,-3.734375 C 3.625,-3.71875 3.421875,-3.5 3.421875,-3.28125 c 0,0.140625 0.09375,0.296875 0.3125,0.296875 0.21875,0 0.453125,-0.171875 0.453125,-0.5625 C 4.1875,-4 3.765625,-4.40625 3,-4.40625 c -1.3125,0 -1.6875,1.015625 -1.6875,1.453125 0,0.78125 0.734375,0.921875 1.03125,0.984375 0.515625,0.109375 1.03125,0.21875 1.03125,0.765625 0,0.25 -0.21875,1.09375 -1.421875,1.09375 -0.140625,0 -0.90625,0 -1.140625,-0.53125 0.390625,0.046875 0.640625,-0.25 0.640625,-0.53125 0,-0.21875 -0.171875,-0.34375 -0.375,-0.34375 -0.265625,0 -0.5625,0.203125 -0.5625,0.65625 0,0.5625 0.578125,0.96875 1.421875,0.96875 1.625,0 2.015625,-1.203125 2.015625,-1.65625 0,-0.359375 -0.1875,-0.609375 -0.3125,-0.71875 -0.265625,-0.28125 -0.5625,-0.34375 -1,-0.421875 -0.359375,-0.078125 -0.75,-0.15625 -0.75,-0.609375 C 1.890625,-3.578125 2.125,-4.1875 3,-4.1875 c 0.25,0 0.75,0.078125 0.890625,0.453125 z m 0,0"
             id="id-b4ffead1-5ab5-4fe0-9d74-dddfb042b189"
             style="fill:#ddca22" />
        </g>
        <g
           transform="translate(313.274,150.207)"
           id="g6735"
           style="fill:#ddca22">
          <path
             d="m 2.828125,-6.234375 c 0,-0.203125 -0.140625,-0.359375 -0.359375,-0.359375 -0.28125,0 -0.546875,0.265625 -0.546875,0.53125 0,0.1875 0.140625,0.359375 0.375,0.359375 0.234375,0 0.53125,-0.234375 0.53125,-0.53125 z m -0.75,3.75 c 0.109375,-0.28125 0.109375,-0.3125 0.21875,-0.578125 0.078125,-0.203125 0.125,-0.34375 0.125,-0.53125 0,-0.4375 -0.3125,-0.8125 -0.8125,-0.8125 -0.9375,0 -1.3125,1.453125 -1.3125,1.53125 0,0.109375 0.09375,0.109375 0.109375,0.109375 0.109375,0 0.109375,-0.03125 0.15625,-0.1875 0.28125,-0.9375 0.671875,-1.234375 1.015625,-1.234375 0.078125,0 0.25,0 0.25,0.3125 0,0.21875 -0.078125,0.421875 -0.109375,0.53125 -0.078125,0.25 -0.53125,1.40625 -0.6875,1.84375 -0.109375,0.25 -0.234375,0.578125 -0.234375,0.796875 0,0.46875 0.34375,0.8125 0.8125,0.8125 0.9375,0 1.3125,-1.4375 1.3125,-1.53125 0,-0.109375 -0.09375,-0.109375 -0.125,-0.109375 -0.09375,0 -0.09375,0.03125 -0.140625,0.1875 -0.1875,0.625 -0.515625,1.234375 -1.015625,1.234375 -0.171875,0 -0.25,-0.09375 -0.25,-0.328125 0,-0.25 0.0625,-0.390625 0.296875,-1 z m 0,0"
             id="id-b6441d0d-819b-439d-9dcc-4e6e41aa1239"
             style="fill:#ddca22" />
        </g>
        <g
           transform="translate(316.706,150.207)"
           id="g488"
           style="fill:#ddca22">
          <path
             d="m 0.875,-0.59375 c -0.03125,0.15625 -0.09375,0.390625 -0.09375,0.4375 0,0.171875 0.140625,0.265625 0.296875,0.265625 0.125,0 0.296875,-0.078125 0.375,-0.28125 0,-0.015625 0.125,-0.484375 0.1875,-0.734375 l 0.21875,-0.890625 C 1.90625,-2.03125 1.96875,-2.25 2.03125,-2.46875 c 0.03125,-0.171875 0.109375,-0.46875 0.125,-0.5 0.140625,-0.3125 0.671875,-1.21875 1.625,-1.21875 0.453125,0 0.53125,0.375 0.53125,0.703125 0,0.609375 -0.484375,1.890625 -0.640625,2.3125 C 3.578125,-0.9375 3.5625,-0.8125 3.5625,-0.703125 c 0,0.46875 0.359375,0.8125 0.828125,0.8125 0.9375,0 1.296875,-1.453125 1.296875,-1.53125 0,-0.109375 -0.078125,-0.109375 -0.109375,-0.109375 -0.109375,0 -0.109375,0.03125 -0.15625,0.1875 -0.203125,0.671875 -0.53125,1.234375 -1.015625,1.234375 -0.171875,0 -0.234375,-0.09375 -0.234375,-0.328125 0,-0.25 0.078125,-0.484375 0.171875,-0.703125 0.1875,-0.53125 0.609375,-1.625 0.609375,-2.203125 0,-0.65625 -0.421875,-1.0625 -1.140625,-1.0625 -0.90625,0 -1.390625,0.640625 -1.5625,0.875 -0.046875,-0.5625 -0.453125,-0.875 -0.921875,-0.875 -0.453125,0 -0.640625,0.390625 -0.734375,0.5625 C 0.421875,-3.5 0.296875,-2.90625 0.296875,-2.875 c 0,0.109375 0.09375,0.109375 0.109375,0.109375 0.109375,0 0.109375,-0.015625 0.171875,-0.234375 0.171875,-0.703125 0.375,-1.1875 0.734375,-1.1875 0.1875,0 0.296875,0.125 0.296875,0.453125 0,0.21875 -0.03125,0.328125 -0.15625,0.84375 z m 0,0"
             id="id-9b27f99c-92fc-4e29-a67f-f8e39eb831b7"
             style="fill:#ddca22" />
        </g>
      </g>
      <g
         fill="#000000"
         fill-opacity="1"
         id="id-2fba45bf-7d1f-41cd-964b-755344462986"
         transform="translate(-201.864,-135.753)"
         style="fill:#ddca22">
        <g
           transform="translate(324.343,136.159)"
           id="g5307"
           style="fill:#ddca22">
          <path
             d="m 6.984375,23.421875 c 0,-0.04687 -0.03125,-0.0625 -0.046875,-0.09375 -0.375,-0.375 -1.03125,-1.03125 -1.703125,-2.109375 C 3.625,18.640625 2.90625,15.40625 2.90625,11.5625 c 0,-2.6875 0.359375,-6.140625 2,-9.109375 C 5.6875,1.03125 6.515625,0.21875 6.953125,-0.21875 c 0.03125,-0.03125 0.03125,-0.046875 0.03125,-0.078125 0,-0.109375 -0.078125,-0.109375 -0.21875,-0.109375 -0.140625,0 -0.15625,0 -0.3125,0.15625 -3.328125,3.046875 -4.375,7.609375 -4.375,11.796875 0,3.921875 0.890625,7.875 3.421875,10.859375 0.203125,0.21875 0.578125,0.625 0.984375,0.984375 0.125,0.125 0.140625,0.125 0.28125,0.125 0.140625,0 0.21875,0 0.21875,-0.09375 z m 0,0"
             id="id-3b97f97b-d75e-4504-9892-8f3d774a8b08"
             style="fill:#ddca22" />
        </g>
      </g>
      <g
         fill="#000000"
         fill-opacity="1"
         id="id-addc8f9e-e743-413f-9fed-f8238c089c0b"
         transform="translate(-201.864,-135.753)"
         style="fill:#ddca22">
        <g
           transform="translate(332.872,143.467)"
           id="g7850"
           style="fill:#ddca22">
          <path
             d="m 2.9375,-6.375 c 0,-0.25 0,-0.265625 -0.234375,-0.265625 C 2.078125,-6 1.203125,-6 0.890625,-6 v 0.3125 c 0.203125,0 0.78125,0 1.296875,-0.265625 v 5.171875 c 0,0.359375 -0.03125,0.46875 -0.921875,0.46875 h -0.3125 V 0 c 0.34375,-0.03125 1.203125,-0.03125 1.609375,-0.03125 0.390625,0 1.265625,0 1.609375,0.03125 v -0.3125 h -0.3125 c -0.90625,0 -0.921875,-0.109375 -0.921875,-0.46875 z m 0,0"
             id="id-05608333-a939-42e2-9d70-cbb4f9e68ca4"
             style="fill:#ddca22" />
        </g>
      </g>
      <path
         fill="none"
         stroke-width="0.398"
         stroke-linecap="butt"
         stroke-linejoin="miter"
         stroke="#000000"
         stroke-opacity="1"
         stroke-miterlimit="10"
         d="m 131.00671,11.962097 h 4.98047"
         id="id-668cd87d-3d61-40ed-9db0-43d749cb9cbd"
         style="fill:#ddca22;stroke:#ddca22" />
      <g
         fill="#000000"
         fill-opacity="1"
         id="id-6a05b915-512e-4832-8719-3578823fca63"
         transform="translate(-201.864,-135.753)"
         style="fill:#ddca22">
        <g
           transform="translate(333.564,157.041)"
           id="g8842"
           style="fill:#ddca22">
          <path
             d="m 2.046875,-3.984375 h 0.9375 c 0.203125,0 0.3125,0 0.3125,-0.203125 0,-0.109375 -0.109375,-0.109375 -0.28125,-0.109375 h -0.875 C 2.5,-5.71875 2.546875,-5.90625 2.546875,-5.96875 c 0,-0.171875 -0.125,-0.265625 -0.296875,-0.265625 -0.03125,0 -0.3125,0 -0.390625,0.359375 L 1.46875,-4.296875 h -0.9375 c -0.203125,0 -0.296875,0 -0.296875,0.1875 0,0.125 0.078125,0.125 0.28125,0.125 h 0.875 C 0.671875,-1.15625 0.625,-0.984375 0.625,-0.8125 0.625,-0.265625 1,0.109375 1.546875,0.109375 2.5625,0.109375 3.125,-1.34375 3.125,-1.421875 3.125,-1.53125 3.046875,-1.53125 3.015625,-1.53125 2.921875,-1.53125 2.90625,-1.5 2.859375,-1.390625 2.4375,-0.34375 1.90625,-0.109375 1.5625,-0.109375 c -0.203125,0 -0.3125,-0.125 -0.3125,-0.453125 0,-0.25 0.03125,-0.3125 0.0625,-0.484375 z m 0,0"
             id="id-186b7da7-056f-4af0-91d6-9f370d6c2edc"
             style="fill:#ddca22" />
        </g>
      </g>
      <g
         fill="#000000"
         fill-opacity="1"
         id="id-1aaf3a91-6ab3-4c46-aeca-15c343ee1ff4"
         transform="translate(-201.864,-135.753)"
         style="fill:#ddca22">
        <g
           transform="translate(339.049,136.159)"
           id="g4113"
           style="fill:#ddca22">
          <path
             d="M 5.25,11.5625 C 5.25,7.640625 4.359375,3.703125 1.828125,0.71875 1.625,0.484375 1.25,0.078125 0.84375,-0.28125 c -0.125,-0.125 -0.140625,-0.125 -0.28125,-0.125 -0.125,0 -0.21875,0 -0.21875,0.109375 0,0.03125 0.046875,0.078125 0.0625,0.09375 0.34375,0.359375 1.015625,1.03125 1.6875,2.109375 1.609375,2.5625 2.328125,5.8125 2.328125,9.640625 0,2.6875 -0.359375,6.140625 -2,9.125 -0.78125,1.40625 -1.609375,2.234375 -2.03125,2.65625 -0.015625,0.03125 -0.046875,0.0625 -0.046875,0.09375 0,0.09375 0.09375,0.09375 0.21875,0.09375 0.140625,0 0.15625,0 0.3125,-0.15625 C 4.203125,20.328125 5.25,15.765625 5.25,11.5625 Z m 0,0"
             id="id-0cda8432-4c5d-4519-8477-14c521a286a6"
             style="fill:#ddca22" />
        </g>
        <g
           transform="translate(346.382,136.159)"
           id="g6684"
           style="fill:#ddca22">
          <path
             d="M 5.25,11.5625 C 5.25,7.640625 4.359375,3.703125 1.828125,0.71875 1.625,0.484375 1.25,0.078125 0.84375,-0.28125 c -0.125,-0.125 -0.140625,-0.125 -0.28125,-0.125 -0.125,0 -0.21875,0 -0.21875,0.109375 0,0.03125 0.046875,0.078125 0.0625,0.09375 0.34375,0.359375 1.015625,1.03125 1.6875,2.109375 1.609375,2.5625 2.328125,5.8125 2.328125,9.640625 0,2.6875 -0.359375,6.140625 -2,9.125 -0.78125,1.40625 -1.609375,2.234375 -2.03125,2.65625 -0.015625,0.03125 -0.046875,0.0625 -0.046875,0.09375 0,0.09375 0.09375,0.09375 0.21875,0.09375 0.140625,0 0.15625,0 0.3125,-0.15625 C 4.203125,20.328125 5.25,15.765625 5.25,11.5625 Z m 0,0"
             id="id-b6bcf508-81b6-4772-8dc2-c45856c46551"
             style="fill:#ddca22" />
        </g>
      </g>
      <g
         fill="#000000"
         fill-opacity="1"
         id="id-322899f2-76a3-4811-815d-f3bddb035282"
         transform="translate(-201.864,-135.753)"
         style="fill:#ddca22">
        <g
           transform="translate(356.484,150.207)"
           id="g8339"
           style="fill:#ddca22">
          <path
             d="m 1.90625,-3.765625 c 0,-0.296875 -0.234375,-0.53125 -0.515625,-0.53125 -0.296875,0 -0.53125,0.234375 -0.53125,0.53125 0,0.28125 0.234375,0.53125 0.53125,0.53125 0.28125,0 0.515625,-0.25 0.515625,-0.53125 z m 0,3.234375 c 0,-0.28125 -0.234375,-0.53125 -0.515625,-0.53125 -0.296875,0 -0.53125,0.25 -0.53125,0.53125 C 0.859375,-0.234375 1.09375,0 1.390625,0 1.671875,0 1.90625,-0.234375 1.90625,-0.53125 Z m 0,0"
             id="id-dc78ede0-6184-40fe-86a8-ae927e5ee723"
             style="fill:#ddca22" />
        </g>
      </g>
      <g
         fill="#000000"
         fill-opacity="1"
         id="id-1523e281-a605-40ce-9783-281830a32e56"
         transform="translate(-201.864,-135.753)"
         style="fill:#ddca22">
        <g
           transform="translate(362.021,150.207)"
           id="g1252"
           style="fill:#ddca22">
          <path
             d="m 4.578125,-3.1875 c 0,-0.796875 -0.046875,-1.59375 -0.390625,-2.328125 -0.453125,-0.96875 -1.28125,-1.125 -1.6875,-1.125 -0.609375,0 -1.328125,0.265625 -1.75,1.1875 -0.3125,0.6875 -0.359375,1.46875 -0.359375,2.265625 0,0.75 0.03125,1.640625 0.453125,2.40625 0.421875,0.796875 1.15625,1 1.640625,1 0.53125,0 1.296875,-0.203125 1.734375,-1.15625 0.3125,-0.6875 0.359375,-1.46875 0.359375,-2.25 z M 2.484375,0 C 2.09375,0 1.5,-0.25 1.328125,-1.203125 1.21875,-1.796875 1.21875,-2.71875 1.21875,-3.3125 c 0,-0.640625 0,-1.296875 0.078125,-1.828125 0.1875,-1.1875 0.9375,-1.28125 1.1875,-1.28125 0.328125,0 0.984375,0.1875 1.171875,1.171875 0.109375,0.5625 0.109375,1.3125 0.109375,1.9375 0,0.75 0,1.421875 -0.109375,2.0625 C 3.5,-0.296875 2.9375,0 2.484375,0 Z m 0,0"
             id="id-63d87198-0ac4-46fc-88b8-6a7975dc89ef"
             style="fill:#ddca22" />
        </g>
      </g>
      <g
         fill="#000000"
         fill-opacity="1"
         id="id-30f88a5a-7b40-4f4c-b52e-c463d178052c"
         transform="translate(-201.864,-135.753)"
         style="fill:#ddca22">
        <g
           transform="translate(369.767,150.207)"
           id="g7454"
           style="fill:#ddca22">
          <path
             d="m 6.734375,-4.96875 c 0.109375,-0.0625 0.1875,-0.109375 0.1875,-0.21875 0,-0.109375 -0.09375,-0.203125 -0.203125,-0.203125 -0.03125,0 -0.046875,0 -0.171875,0.078125 l -5.53125,2.59375 c -0.109375,0.0625 -0.1875,0.109375 -0.1875,0.21875 0,0.125 0.078125,0.171875 0.1875,0.234375 l 5.53125,2.59375 C 6.671875,0.40625 6.6875,0.40625 6.71875,0.40625 c 0.109375,0 0.203125,-0.09375 0.203125,-0.203125 0,-0.109375 -0.078125,-0.15625 -0.1875,-0.21875 L 1.5,-2.5 Z m 0,0"
             id="id-670d553d-c64f-49c6-ab1c-563f8c48c5cf"
             style="fill:#ddca22" />
        </g>
      </g>
      <g
         fill="#000000"
         fill-opacity="1"
         id="id-3caf9341-a19a-4b1f-b4a3-9513c0b93ca0"
         transform="translate(-201.864,-135.753)"
         style="fill:#ddca22">
        <g
           transform="translate(380.286,150.207)"
           id="g3485"
           style="fill:#ddca22">
          <path
             d="m 2.046875,-3.984375 h 0.9375 c 0.203125,0 0.3125,0 0.3125,-0.203125 0,-0.109375 -0.109375,-0.109375 -0.28125,-0.109375 h -0.875 C 2.5,-5.71875 2.546875,-5.90625 2.546875,-5.96875 c 0,-0.171875 -0.125,-0.265625 -0.296875,-0.265625 -0.03125,0 -0.3125,0 -0.390625,0.359375 L 1.46875,-4.296875 h -0.9375 c -0.203125,0 -0.296875,0 -0.296875,0.1875 0,0.125 0.078125,0.125 0.28125,0.125 h 0.875 C 0.671875,-1.15625 0.625,-0.984375 0.625,-0.8125 0.625,-0.265625 1,0.109375 1.546875,0.109375 2.5625,0.109375 3.125,-1.34375 3.125,-1.421875 3.125,-1.53125 3.046875,-1.53125 3.015625,-1.53125 2.921875,-1.53125 2.90625,-1.5 2.859375,-1.390625 2.4375,-0.34375 1.90625,-0.109375 1.5625,-0.109375 c -0.203125,0 -0.3125,-0.125 -0.3125,-0.453125 0,-0.25 0.03125,-0.3125 0.0625,-0.484375 z m 0,0"
             id="id-624c76fc-5f6e-4f01-be74-f41b917a69e1"
             style="fill:#ddca22" />
        </g>
      </g>
      <g
         fill="#000000"
         fill-opacity="1"
         id="id-d17b13e1-5c51-4376-ba77-515181cf0a57"
         transform="translate(-201.864,-135.753)"
         style="fill:#ddca22">
        <g
           transform="translate(386.648,150.207)"
           id="g3205"
           style="fill:#ddca22">
          <path
             d="m 6.734375,-5.921875 c 0.109375,-0.046875 0.1875,-0.09375 0.1875,-0.21875 0,-0.109375 -0.078125,-0.203125 -0.203125,-0.203125 -0.046875,0 -0.140625,0.046875 -0.171875,0.0625 L 1.03125,-3.671875 c -0.171875,0.078125 -0.203125,0.140625 -0.203125,0.21875 0,0.09375 0.0625,0.15625 0.203125,0.21875 l 5.515625,2.59375 C 6.671875,-0.5625 6.6875,-0.5625 6.71875,-0.5625 c 0.109375,0 0.203125,-0.09375 0.203125,-0.203125 C 6.921875,-0.859375 6.875,-0.921875 6.703125,-1 L 1.5,-3.453125 Z M 6.5625,1.359375 c 0.171875,0 0.359375,0 0.359375,-0.1875 0,-0.203125 -0.21875,-0.203125 -0.359375,-0.203125 h -5.375 c -0.15625,0 -0.359375,0 -0.359375,0.203125 0,0.1875 0.171875,0.1875 0.34375,0.1875 z m 0,0"
             id="id-6eb1ebe3-fca8-4d77-ae10-cd74ca13398b"
             style="fill:#ddca22" />
        </g>
      </g>
      <g
         fill="#000000"
         fill-opacity="1"
         id="id-ff34d659-d7a0-463a-88e4-14d6e1d1dfc0"
         transform="translate(-201.864,-135.753)"
         style="fill:#ddca22">
        <g
           transform="translate(397.164,150.207)"
           id="g8800"
           style="fill:#ddca22">
          <path
             d="m 2.9375,-6.375 c 0,-0.25 0,-0.265625 -0.234375,-0.265625 C 2.078125,-6 1.203125,-6 0.890625,-6 v 0.3125 c 0.203125,0 0.78125,0 1.296875,-0.265625 v 5.171875 c 0,0.359375 -0.03125,0.46875 -0.921875,0.46875 h -0.3125 V 0 c 0.34375,-0.03125 1.203125,-0.03125 1.609375,-0.03125 0.390625,0 1.265625,0 1.609375,0.03125 v -0.3125 h -0.3125 c -0.90625,0 -0.921875,-0.109375 -0.921875,-0.46875 z m 0,0"
             id="id-6ec81f5a-02f0-4729-a073-d58da34d6a7d"
             style="fill:#ddca22" />
        </g>
      </g>
      <g
         fill="#000000"
         fill-opacity="1"
         id="id-77b3d1e2-9ab5-4260-b516-22e5fa1467fa"
         transform="translate(-201.864,-135.753)"
         style="fill:#ddca22">
        <g
           transform="translate(402.146,136.159)"
           id="g6059"
           style="fill:#ddca22">
          <path
             d="m 4.140625,14.6875 c 0,-1.1875 0.609375,-2.203125 1.9375,-2.921875 0.078125,-0.03125 0.078125,-0.04687 0.078125,-0.203125 0,-0.171875 0,-0.171875 -0.109375,-0.234375 C 4.25,10.375 4.140625,8.90625 4.140625,8.609375 V 2.6875 C 4.140625,1.25 3.15625,0.296875 1.90625,-0.296875 1.6875,-0.40625 1.671875,-0.40625 1.53125,-0.40625 c -0.21875,0 -0.21875,0.015625 -0.21875,0.234375 0,0.140625 0,0.15625 0.078125,0.21875 C 1.828125,0.25 3.09375,0.890625 3.296875,2.328125 3.3125,2.46875 3.3125,2.578125 3.3125,3.171875 V 8.28125 c 0,0.46875 0,1.203125 0.640625,2 0.390625,0.5 0.953125,0.96875 1.640625,1.265625 -1.9375,0.9375 -2.28125,2.375 -2.28125,2.953125 v 5.734375 c 0,0.515625 0,1.09375 -0.578125,1.828125 -0.4375,0.5625 -0.9375,0.8125 -1.359375,1.03125 -0.0625,0.03125 -0.0625,0.07813 -0.0625,0.203125 0,0.203125 0,0.21875 0.21875,0.21875 0.140625,0 0.15625,0 0.40625,-0.125 1,-0.484375 1.96875,-1.265625 2.171875,-2.484375 0.03125,-0.203125 0.03125,-0.296875 0.03125,-0.953125 z m 0,0"
             id="id-5777877d-bc32-4b60-841b-e53e753113ee"
             style="fill:#ddca22" />
        </g>
      </g>
    </g>
  </g>
</svg>
